<?xml version="1.0" encoding="UTF-8"?>
<!DOCTYPE svg PUBLIC "-//W3C//DTD SVG 1.1//EN" "http://www.w3.org/Graphics/SVG/1.1/DTD/svg11.dtd">
<svg xmlns="http://www.w3.org/2000/svg" version="1.1" width="600px" height="600px" style="shape-rendering:geometricPrecision; text-rendering:geometricPrecision; image-rendering:optimizeQuality; fill-rule:evenodd; clip-rule:evenodd" xmlns:xlink="http://www.w3.org/1999/xlink">
<g><path style="opacity:0.996" fill="#fb6970" d="M 599.5,264.5 C 599.5,278.5 599.5,292.5 599.5,306.5C 587.831,409.713 537.164,487.213 447.5,539C 358.393,584.737 267.059,589.737 173.5,554C 92.9488,520.946 34.9488,464.78 -0.5,385.5C -0.5,383.5 -0.5,381.5 -0.5,379.5C 5.59064,366.546 7.42397,352.879 5,338.5C 5.65134,334.363 7.48468,330.863 10.5,328C 17.1659,324.669 23.4992,320.836 29.5,316.5C 31.4986,314.507 32.9986,312.173 34,309.5C 38.5864,289.12 51.0864,281.287 71.5,286C 85.8143,290.313 95.6476,299.48 101,313.5C 135.812,425.908 211.646,473.408 328.5,456C 400.085,439.745 446.585,396.579 468,326.5C 482.997,259.48 463.83,204.647 410.5,162C 369.735,134.447 327.402,132.114 283.5,155C 251.979,173.192 230.813,199.692 220,234.5C 217.517,246.549 214.851,258.549 212,270.5C 207.698,278.902 200.865,283.735 191.5,285C 163.501,285.077 135.501,284.744 107.5,284C 100.369,281.18 96.7025,275.847 96.5,268C 99.1738,204.605 120.674,148.772 161,100.5C 216.855,43.091 285.022,16.9244 365.5,22C 442.938,31.5121 504.438,67.6787 550,130.5C 578.279,170.838 594.779,215.505 599.5,264.5 Z"/></g>
</svg>
