<?xml version="1.0" standalone="no"?>
<!DOCTYPE svg PUBLIC "-//W3C//DTD SVG 20010904//EN"
 "http://www.w3.org/TR/2001/REC-SVG-20010904/DTD/svg10.dtd">
<svg version="1.0" xmlns="http://www.w3.org/2000/svg"
 width="32.000000pt" height="32.000000pt" viewBox="0 0 32.000000 32.000000"
 preserveAspectRatio="xMidYMid meet">

<g transform="translate(0.000000,32.000000) scale(0.100000,-0.100000)"
fill="#000000" stroke="none">
<path d="M95 306 c-101 -44 -125 -178 -46 -257 65 -65 157 -65 222 0 124 124
-15 327 -176 257z m96 -102 c9 -12 10 -20 2 -33 -7 -11 -8 -23 -2 -32 11 -18
11 -29 0 -29 -5 0 -13 9 -16 20 -3 11 -15 20 -26 20 -12 0 -19 -7 -19 -20 0
-11 -4 -20 -10 -20 -5 0 -10 25 -10 55 l0 55 34 0 c18 0 39 -7 47 -16z"/>
<path d="M130 185 c0 -9 9 -15 25 -15 16 0 25 6 25 15 0 9 -9 15 -25 15 -16 0
-25 -6 -25 -15z"/>
</g>
</svg>
