<?xml version="1.0" encoding="UTF-8"?>
<svg xmlns="http://www.w3.org/2000/svg" xmlns:xlink="http://www.w3.org/1999/xlink" width="2731px" height="2731px" viewBox="0 0 1536 1536" version="1.1">
<g id="surface1">
<path style=" stroke:none;fill-rule:nonzero;fill:rgb(0%,0%,0%);fill-opacity:1;" d="M 0 768 L 0 1536 L 1536 1536 L 1536 0 L 0 0 Z M 941.25 275.398438 C 954.148438 277.875 956.25 278.398438 967.125 282.148438 C 977.476562 285.75 994.5 294.148438 1002.824219 299.773438 C 1025.699219 315.300781 1044.976562 336.976562 1057.351562 361.199219 C 1063.351562 372.976562 1069.5 391.425781 1072.273438 406.125 C 1074.148438 415.949219 1074.148438 450.449219 1072.199219 460.125 C 1065.601562 493.726562 1052.324219 520.199219 1030.273438 543.449219 C 1003.875 571.351562 969.074219 588.375 930.375 592.425781 C 923.398438 593.175781 918.148438 593.925781 918.75 594.226562 C 919.351562 594.449219 923.625 594.824219 928.125 595.050781 C 937.800781 595.5 949.125 597.601562 960.074219 600.824219 C 1013.625 616.800781 1056 660.824219 1069.425781 714.375 C 1072.5 726.824219 1073.175781 730.800781 1073.925781 742.800781 C 1075.125 760.800781 1073.476562 779.101562 1069.125 795.375 C 1066.574219 804.898438 1066.273438 805.726562 1062.75 814.5 C 1051.050781 843.824219 1029.75 870 1002.824219 887.925781 C 963.601562 914.101562 913.273438 921.523438 868.125 907.875 C 832.050781 896.925781 801.75 874.351562 780.824219 843 C 763.351562 816.824219 754.351562 786.976562 754.199219 754.5 C 754.050781 729.523438 759.148438 707.25 770.324219 684.375 C 790.726562 642.300781 828.523438 611.25 873.75 599.398438 C 883.425781 596.851562 889.125 595.875 901.125 594.675781 C 905.625 594.300781 909.449219 593.773438 909.675781 593.550781 C 909.824219 593.398438 874.875 593.25 831.898438 593.25 L 753.75 593.25 L 753.75 272.925781 L 842.476562 273.226562 L 931.125 273.449219 Z M 753.75 993.898438 C 753.75 1038.375 753.449219 1078.050781 753 1084.648438 C 747.898438 1164.523438 687.375 1227.148438 607.574219 1235.25 C 568.050781 1239.226562 525.449219 1226.398438 493.199219 1200.898438 C 486.375 1195.5 473.25 1182.375 467.851562 1175.550781 C 429.300781 1126.800781 422.023438 1060.800781 449.175781 1005.375 C 459.898438 983.550781 474.675781 965.023438 493.125 950.324219 C 517.050781 931.199219 548.550781 918.523438 578.550781 915.824219 C 582.300781 915.449219 623.25 915.148438 669.601562 915.074219 L 753.75 915 Z M 753.75 993.898438 "/>
</g>
</svg>
