<?xml version="1.0" encoding="UTF-8"?>
<!DOCTYPE svg PUBLIC "-//W3C//DTD SVG 1.1//EN" "http://www.w3.org/Graphics/SVG/1.1/DTD/svg11.dtd">
<svg xmlns="http://www.w3.org/2000/svg" version="1.1" width="360px" height="347px" style="shape-rendering:geometricPrecision; text-rendering:geometricPrecision; image-rendering:optimizeQuality; fill-rule:evenodd; clip-rule:evenodd" xmlns:xlink="http://www.w3.org/1999/xlink">
<g><path style="opacity:0.004" fill="#fefffe" d="M 44.5,0.5 C 45.8333,1.16667 45.8333,1.16667 44.5,0.5 Z"/></g>
<g><path style="opacity:0.004" fill="#fefffe" d="M 20.5,10.5 C 21.8333,11.1667 21.8333,11.1667 20.5,10.5 Z"/></g>
<g><path style="opacity:0.004" fill="#fefffe" d="M 44.5,14.5 C 45.8333,15.1667 45.8333,15.1667 44.5,14.5 Z"/></g>
<g><path style="opacity:0.004" fill="#fefffe" d="M 194.5,15.5 C 195.833,16.1667 195.833,16.1667 194.5,15.5 Z"/></g>
<g><path style="opacity:0.004" fill="#fefffe" d="M 86.5,23.5 C 87.8333,24.1667 87.8333,24.1667 86.5,23.5 Z"/></g>
<g><path style="opacity:0.078" fill="#a6a6a6" d="M 258.5,26.5 C 206.5,26.5 154.5,26.5 102.5,26.5C 108.234,25.8142 114.067,25.1476 120,24.5C 166.264,25.1643 212.431,25.8309 258.5,26.5 Z"/></g>
<g><path style="opacity:1" fill="#1e1e1e" d="M 102.5,26.5 C 154.5,26.5 206.5,26.5 258.5,26.5C 284.734,26.2871 304.567,37.2871 318,59.5C 320.928,65.551 322.762,71.8844 323.5,78.5C 324.626,137.157 324.793,195.824 324,254.5C 323.667,257.167 323.333,259.833 323,262.5C 322.5,263.667 321.667,264.5 320.5,265C 321.973,265.71 322.64,266.876 322.5,268.5C 317.899,288.831 305.899,302.998 286.5,311C 278.384,313.779 270.05,315.446 261.5,316C 203.815,316.955 146.148,316.621 88.5,315C 53.8279,306.989 35.9945,285.155 35,249.5C 34.0553,192.817 34.3886,136.15 36,79.5C 44.2145,44.3112 66.3812,26.6445 102.5,26.5 Z"/></g>
<g><path style="opacity:0.004" fill="#fefffe" d="M 29.5,32.5 C 30.8333,33.1667 30.8333,33.1667 29.5,32.5 Z"/></g>
<g><path style="opacity:0.004" fill="#fefffe" d="M 29.5,39.5 C 30.8333,40.1667 30.8333,40.1667 29.5,39.5 Z"/></g>
<g><path style="opacity:0.004" fill="#fefffe" d="M 38.5,59.5 C 39.8333,60.1667 39.8333,60.1667 38.5,59.5 Z"/></g>
<g><path style="opacity:0.004" fill="#fefffe" d="M 8.5,65.5 C 9.83333,66.1667 9.83333,66.1667 8.5,65.5 Z"/></g>
<g><path style="opacity:0.004" fill="#fefffe" d="M 2.5,66.5 C 3.83333,67.1667 3.83333,67.1667 2.5,66.5 Z"/></g>
<g><path style="opacity:0.004" fill="#fefffe" d="M 5.5,70.5 C 6.83333,71.1667 6.83333,71.1667 5.5,70.5 Z"/></g>
<g><path style="opacity:1" fill="#360402" d="M 143.5,80.5 C 167.997,79.3367 192.663,79.1701 217.5,80C 218.416,80.2784 219.082,80.7784 219.5,81.5C 206.53,80.5771 193.53,80.2438 180.5,80.5C 168.167,80.5 155.833,80.5 143.5,80.5 Z"/></g>
<g><path style="opacity:1" fill="#c2593b" d="M 143.5,80.5 C 155.833,80.5 168.167,80.5 180.5,80.5C 180.5,80.8333 180.5,81.1667 180.5,81.5C 165.73,80.9614 151.063,81.628 136.5,83.5C 138.679,82.3228 141.013,81.3228 143.5,80.5 Z"/></g>
<g><path style="opacity:1" fill="#ed7d70" d="M 180.5,81.5 C 180.5,81.1667 180.5,80.8333 180.5,80.5C 193.53,80.2438 206.53,80.5771 219.5,81.5C 224.266,82.9186 228.266,85.5853 231.5,89.5C 229.307,88.3195 226.974,87.3195 224.5,86.5C 223.325,87.8549 222.325,87.6883 221.5,86C 222.167,85.6667 222.833,85.3333 223.5,85C 220.956,83.908 218.289,83.2414 215.5,83C 203.758,82.8123 192.091,82.3123 180.5,81.5 Z"/></g>
<g><path style="opacity:1" fill="#fd7261" d="M 180.5,81.5 C 192.091,82.3123 203.758,82.8123 215.5,83C 218.289,83.2414 220.956,83.908 223.5,85C 222.833,85.3333 222.167,85.6667 221.5,86C 222.325,87.6883 223.325,87.8549 224.5,86.5C 226.974,87.3195 229.307,88.3195 231.5,89.5C 231.833,89.5 232.167,89.5 232.5,89.5C 232.996,92.9793 233.996,96.3127 235.5,99.5C 236.325,100.386 237.325,100.719 238.5,100.5C 238.194,104.198 238.861,107.698 240.5,111C 239.058,116.102 237.724,121.268 236.5,126.5C 235.134,129.713 233.134,132.546 230.5,135C 226.123,138.025 221.456,140.192 216.5,141.5C 212.833,141.5 209.167,141.5 205.5,141.5C 197.167,141.5 188.833,141.5 180.5,141.5C 179.833,141.5 179.167,141.5 178.5,141.5C 166.5,141.5 154.5,141.5 142.5,141.5C 142.5,141.167 142.5,140.833 142.5,140.5C 155.167,140.5 167.833,140.5 180.5,140.5C 180.5,120.833 180.5,101.167 180.5,81.5 Z"/></g>
<g><path style="opacity:1" fill="#f34e1c" d="M 180.5,81.5 C 180.5,101.167 180.5,120.833 180.5,140.5C 167.833,140.5 155.167,140.5 142.5,140.5C 135.029,139.599 129.363,135.933 125.5,129.5C 124.464,125.755 123.131,122.088 121.5,118.5C 120.338,113.533 120.171,108.533 121,103.5C 123.755,101.234 125.088,98.234 125,94.5C 128.038,91.6306 130.871,88.6306 133.5,85.5C 133.973,84.0937 134.973,83.427 136.5,83.5C 151.063,81.628 165.73,80.9614 180.5,81.5 Z"/></g>
<g><path style="opacity:1" fill="#e8786c" d="M 232.5,89.5 C 241.62,99.3445 243.787,110.678 239,123.5C 238.623,124.942 237.79,125.942 236.5,126.5C 237.724,121.268 239.058,116.102 240.5,111C 238.861,107.698 238.194,104.198 238.5,100.5C 237.325,100.719 236.325,100.386 235.5,99.5C 233.996,96.3127 232.996,92.9793 232.5,89.5 Z"/></g>
<g><path style="opacity:0.004" fill="#fefffe" d="M 350.5,95.5 C 351.833,96.1667 351.833,96.1667 350.5,95.5 Z"/></g>
<g><path style="opacity:0.004" fill="#fefffe" d="M 8.5,103.5 C 9.83333,104.167 9.83333,104.167 8.5,103.5 Z"/></g>
<g><path style="opacity:1" fill="#d3532d" d="M 133.5,85.5 C 130.871,88.6306 128.038,91.6306 125,94.5C 125.088,98.234 123.755,101.234 121,103.5C 120.171,108.533 120.338,113.533 121.5,118.5C 123.131,122.088 124.464,125.755 125.5,129.5C 122.463,126.94 120.629,123.607 120,119.5C 116.55,104.767 121.05,93.434 133.5,85.5 Z"/></g>
<g><path style="opacity:0.004" fill="#fefffe" d="M 344.5,106.5 C 345.833,107.167 345.833,107.167 344.5,106.5 Z"/></g>
<g><path style="opacity:0.481" fill="#444444" d="M 323.5,78.5 C 324.314,80.631 324.814,82.9644 325,85.5C 325.667,142.5 325.667,199.5 325,256.5C 324.811,260.767 323.977,264.767 322.5,268.5C 322.64,266.876 321.973,265.71 320.5,265C 321.667,264.5 322.5,263.667 323,262.5C 323.333,259.833 323.667,257.167 324,254.5C 324.793,195.824 324.626,137.157 323.5,78.5 Z"/></g>
<g><path style="opacity:0.004" fill="#fefffe" d="M 17.5,113.5 C 18.8333,114.167 18.8333,114.167 17.5,113.5 Z"/></g>
<g><path style="opacity:0.004" fill="#fefffe" d="M 29.5,119.5 C 30.8333,120.167 30.8333,120.167 29.5,119.5 Z"/></g>
<g><path style="opacity:0.004" fill="#fefffe" d="M 5.5,133.5 C 6.83333,134.167 6.83333,134.167 5.5,133.5 Z"/></g>
<g><path style="opacity:0.004" fill="#fefffe" d="M 8.5,136.5 C 9.83333,137.167 9.83333,137.167 8.5,136.5 Z"/></g>
<g><path style="opacity:1" fill="#af50ae" d="M 142.5,141.5 C 154.5,141.5 166.5,141.5 178.5,141.5C 178.5,141.833 178.5,142.167 178.5,142.5C 168.833,142.5 159.167,142.5 149.5,142.5C 146.098,142.342 142.764,142.676 139.5,143.5C 139.973,142.094 140.973,141.427 142.5,141.5 Z"/></g>
<g><path style="opacity:0.004" fill="#fefffe" d="M 2.5,142.5 C 3.83333,143.167 3.83333,143.167 2.5,142.5 Z"/></g>
<g><path style="opacity:1" fill="#a259fe" d="M 149.5,142.5 C 159.167,142.5 168.833,142.5 178.5,142.5C 179.497,161.993 179.83,181.66 179.5,201.5C 167.162,201.667 154.829,201.5 142.5,201C 140.091,199.293 137.425,198.46 134.5,198.5C 129.262,195.764 125.095,191.764 122,186.5C 121.517,185.552 121.351,184.552 121.5,183.5C 120.167,175.833 120.167,168.167 121.5,160.5C 127.977,149.935 137.311,143.935 149.5,142.5 Z"/></g>
<g><path style="opacity:1" fill="#2d1d23" d="M 180.5,142.5 C 180.5,142.167 180.5,141.833 180.5,141.5C 188.833,141.5 197.167,141.5 205.5,141.5C 204.432,142.434 203.099,142.768 201.5,142.5C 195.167,142.5 188.833,142.5 182.5,142.5C 182.337,144.857 182.503,147.19 183,149.5C 183.644,145.346 185.81,143.68 189.5,144.5C 186.782,147.545 184.116,150.545 181.5,153.5C 181.815,149.629 181.482,145.962 180.5,142.5 Z"/></g>
<g><path style="opacity:1" fill="#21bcfb" d="M 205.5,141.5 C 209.167,141.5 212.833,141.5 216.5,141.5C 225.35,143.591 232.017,148.591 236.5,156.5C 238.52,161.752 239.853,167.252 240.5,173C 239.652,175.77 239.319,178.603 239.5,181.5C 236.851,190.986 230.851,197.486 221.5,201C 201.917,206.043 188.584,199.21 181.5,180.5C 180.6,175.228 180.267,169.895 180.5,164.5C 181.537,163.07 182.204,161.403 182.5,159.5C 184.92,155.9 187.586,152.4 190.5,149C 194.096,146.539 197.763,144.373 201.5,142.5C 203.099,142.768 204.432,142.434 205.5,141.5 Z"/></g>
<g><path style="opacity:1" fill="#171c1d" d="M 201.5,142.5 C 197.763,144.373 194.096,146.539 190.5,149C 187.586,152.4 184.92,155.9 182.5,159.5C 181.85,157.565 181.517,155.565 181.5,153.5C 184.116,150.545 186.782,147.545 189.5,144.5C 185.81,143.68 183.644,145.346 183,149.5C 182.503,147.19 182.337,144.857 182.5,142.5C 188.833,142.5 195.167,142.5 201.5,142.5 Z"/></g>
<g><path style="opacity:0.004" fill="#fefffe" d="M 332.5,151.5 C 333.833,152.167 333.833,152.167 332.5,151.5 Z"/></g>
<g><path style="opacity:1" fill="#9b66d4" d="M 149.5,142.5 C 137.311,143.935 127.977,149.935 121.5,160.5C 124.734,153.267 129.734,147.6 136.5,143.5C 137.5,143.5 138.5,143.5 139.5,143.5C 142.764,142.676 146.098,142.342 149.5,142.5 Z"/></g>
<g><path style="opacity:1" fill="#13072e" d="M 180.5,142.5 C 181.482,145.962 181.815,149.629 181.5,153.5C 181.517,155.565 181.85,157.565 182.5,159.5C 182.204,161.403 181.537,163.07 180.5,164.5C 180.5,157.167 180.5,149.833 180.5,142.5 Z"/></g>
<g><path style="opacity:0.004" fill="#fefffe" d="M 350.5,160.5 C 351.833,161.167 351.833,161.167 350.5,160.5 Z"/></g>
<g><path style="opacity:1" fill="#38b4d6" d="M 236.5,156.5 C 240.721,162.761 242.221,169.761 241,177.5C 240.79,179.058 240.29,180.391 239.5,181.5C 239.319,178.603 239.652,175.77 240.5,173C 239.853,167.252 238.52,161.752 236.5,156.5 Z"/></g>
<g><path style="opacity:0.004" fill="#fefffe" d="M 32.5,176.5 C 33.8333,177.167 33.8333,177.167 32.5,176.5 Z"/></g>
<g><path style="opacity:1" fill="#9d65d0" d="M 121.5,160.5 C 120.167,168.167 120.167,175.833 121.5,183.5C 120.778,183.082 120.278,182.416 120,181.5C 119.833,178.5 119.667,175.5 119.5,172.5C 119.278,168.203 119.945,164.203 121.5,160.5 Z"/></g>
<g><path style="opacity:0.004" fill="#fefffe" d="M 332.5,179.5 C 333.833,180.167 333.833,180.167 332.5,179.5 Z"/></g>
<g><path style="opacity:1" fill="#7061ad" d="M 178.5,142.5 C 178.5,142.167 178.5,141.833 178.5,141.5C 179.167,141.5 179.833,141.5 180.5,141.5C 180.5,141.833 180.5,142.167 180.5,142.5C 180.5,149.833 180.5,157.167 180.5,164.5C 180.267,169.895 180.6,175.228 181.5,180.5C 180.508,187.982 180.175,195.648 180.5,203.5C 169.167,203.5 157.833,203.5 146.5,203.5C 146.5,203.167 146.5,202.833 146.5,202.5C 157.679,202.828 168.679,202.495 179.5,201.5C 179.83,181.66 179.497,161.993 178.5,142.5 Z"/></g>
<g><path style="opacity:1" fill="#221727" d="M 136.5,143.5 C 129.734,147.6 124.734,153.267 121.5,160.5C 119.945,164.203 119.278,168.203 119.5,172.5C 119.667,175.5 119.833,178.5 120,181.5C 120.278,182.416 120.778,183.082 121.5,183.5C 121.351,184.552 121.517,185.552 122,186.5C 125.095,191.764 129.262,195.764 134.5,198.5C 136.703,200.1 139.036,201.433 141.5,202.5C 138.086,202.264 134.753,201.598 131.5,200.5C 129.657,198.395 127.324,197.228 124.5,197C 121.621,195.43 120.955,193.263 122.5,190.5C 122.272,188.603 121.272,187.27 119.5,186.5C 117.976,176.738 118.31,167.072 120.5,157.5C 118.721,155.065 119.387,154.065 122.5,154.5C 122.565,152.304 123.232,150.304 124.5,148.5C 126.895,149.523 127.895,148.523 127.5,145.5C 129.592,145.439 131.092,144.439 132,142.5C 133.356,143.38 134.856,143.714 136.5,143.5 Z"/></g>
<g><path style="opacity:1" fill="#8864d7" d="M 134.5,198.5 C 137.425,198.46 140.091,199.293 142.5,201C 154.829,201.5 167.162,201.667 179.5,201.5C 168.679,202.495 157.679,202.828 146.5,202.5C 144.833,202.5 143.167,202.5 141.5,202.5C 139.036,201.433 136.703,200.1 134.5,198.5 Z"/></g>
<g><path style="opacity:0.004" fill="#fefffe" d="M 332.5,201.5 C 333.833,202.167 333.833,202.167 332.5,201.5 Z"/></g>
<g><path style="opacity:1" fill="#07d081" d="M 140.5,204.5 C 153.5,204.5 166.5,204.5 179.5,204.5C 179.5,216.167 179.5,227.833 179.5,239.5C 173.734,258.227 161.068,266.06 141.5,263C 123.825,256.158 116.658,243.324 120,224.5C 123.412,214.254 130.246,207.587 140.5,204.5 Z"/></g>
<g><path style="opacity:1" fill="#28a27a" d="M 140.5,204.5 C 142.265,203.539 144.265,203.205 146.5,203.5C 157.833,203.5 169.167,203.5 180.5,203.5C 180.828,215.678 180.495,227.678 179.5,239.5C 179.5,227.833 179.5,216.167 179.5,204.5C 166.5,204.5 153.5,204.5 140.5,204.5 Z"/></g>
<g><path style="opacity:0.004" fill="#fefffe" d="M 2.5,208.5 C 3.83333,209.167 3.83333,209.167 2.5,208.5 Z"/></g>
<g><path style="opacity:0.004" fill="#fefffe" d="M 17.5,229.5 C 18.8333,230.167 18.8333,230.167 17.5,229.5 Z"/></g>
<g><path style="opacity:0.004" fill="#fefffe" d="M 26.5,234.5 C 27.8333,235.167 27.8333,235.167 26.5,234.5 Z"/></g>
<g><path style="opacity:0.004" fill="#fefffe" d="M 8.5,256.5 C 9.83333,257.167 9.83333,257.167 8.5,256.5 Z"/></g>
<g><path style="opacity:0.004" fill="#fefffe" d="M 23.5,257.5 C 24.8333,258.167 24.8333,258.167 23.5,257.5 Z"/></g>
<g><path style="opacity:0.004" fill="#fefffe" d="M 326.5,257.5 C 327.833,258.167 327.833,258.167 326.5,257.5 Z"/></g>
<g><path style="opacity:0.004" fill="#fefffe" d="M 332.5,274.5 C 333.833,275.167 333.833,275.167 332.5,274.5 Z"/></g>
<g><path style="opacity:0.004" fill="#fefffe" d="M 5.5,285.5 C 6.83333,286.167 6.83333,286.167 5.5,285.5 Z"/></g>
<g><path style="opacity:0.004" fill="#fefffe" d="M 119.5,318.5 C 120.833,319.167 120.833,319.167 119.5,318.5 Z"/></g>
<g><path style="opacity:0.004" fill="#fefffe" d="M 146.5,318.5 C 147.833,319.167 147.833,319.167 146.5,318.5 Z"/></g>
<g><path style="opacity:0.004" fill="#fefffe" d="M 284.5,321.5 C 285.833,322.167 285.833,322.167 284.5,321.5 Z"/></g>
<g><path style="opacity:0.004" fill="#fefffe" d="M 65.5,325.5 C 66.8333,326.167 66.8333,326.167 65.5,325.5 Z"/></g>
<g><path style="opacity:0.004" fill="#fefffe" d="M 86.5,326.5 C 87.8333,327.167 87.8333,327.167 86.5,326.5 Z"/></g>
<g><path style="opacity:0.004" fill="#fefffe" d="M 59.5,332.5 C 60.8333,333.167 60.8333,333.167 59.5,332.5 Z"/></g>
<g><path style="opacity:0.004" fill="#fefffe" d="M 290.5,339.5 C 291.833,340.167 291.833,340.167 290.5,339.5 Z"/></g>
<g><path style="opacity:0.004" fill="#fefffe" d="M 353.5,342.5 C 354.833,343.167 354.833,343.167 353.5,342.5 Z"/></g>
<g><path style="opacity:0.004" fill="#fefffe" d="M 41.5,344.5 C 42.8333,345.167 42.8333,345.167 41.5,344.5 Z"/></g>
</svg>
