<?xml version="1.0" standalone="no"?>
<!DOCTYPE svg PUBLIC "-//W3C//DTD SVG 20010904//EN"
 "http://www.w3.org/TR/2001/REC-SVG-20010904/DTD/svg10.dtd">
<svg version="1.0" xmlns="http://www.w3.org/2000/svg"
 width="2048.000000pt" height="2048.000000pt" viewBox="0 0 2048.000000 2048.000000"
 preserveAspectRatio="xMidYMid meet">

<g transform="translate(0.000000,2048.000000) scale(0.100000,-0.100000)"
fill="#000000" stroke="none">
<path d="M0 10240 l0 -10240 10240 0 10240 0 0 10240 0 10240 -10240 0 -10240
0 0 -10240z m12550 6568 c172 -33 200 -40 345 -90 138 -48 365 -160 476 -235
305 -207 562 -496 727 -819 80 -157 162 -403 199 -599 25 -131 25 -591 -1
-720 -88 -448 -265 -801 -559 -1111 -352 -372 -816 -599 -1332 -653 -93 -10
-163 -20 -155 -24 8 -3 65 -8 125 -11 129 -6 280 -34 426 -77 714 -213 1279
-800 1458 -1514 41 -166 50 -219 60 -379 16 -240 -6 -484 -64 -701 -34 -127
-38 -138 -85 -255 -156 -391 -440 -740 -799 -979 -523 -349 -1194 -448 -1796
-266 -481 146 -885 447 -1164 865 -233 349 -353 747 -355 1180 -2 333 66 630
215 935 272 561 776 975 1379 1133 129 34 205 47 365 63 60 5 111 12 114 15 2
2 -464 4 -1037 4 l-1042 0 0 2135 0 2136 1183 -4 1182 -3 135 -26z m-2500
-9580 c0 -593 -4 -1122 -10 -1210 -68 -1065 -875 -1900 -1939 -2008 -527 -53
-1095 118 -1525 458 -91 72 -266 247 -338 338 -514 650 -611 1530 -249 2269
143 291 340 538 586 734 319 255 739 424 1139 460 50 5 596 9 1214 10 l1122 1
0 -1052z"/>
</g>
</svg>
