<?xml version="1.0" encoding="UTF-8"?>
<svg version="1.1" xmlns="http://www.w3.org/2000/svg" width="512" height="512">
<path d="M0 0 C13.28887585 9.82476536 20.43029616 23.14350302 24 39 C25.20530503 47.27550323 25.14288604 55.52686827 25.13371277 63.86991882 C25.13558283 65.4846309 25.13788431 67.09934253 25.14057809 68.71405345 C25.14667842 73.13611284 25.14656458 77.55815327 25.14538372 81.98021591 C25.14517926 86.75542419 25.15070275 91.53062645 25.15544128 96.30583191 C25.1637388 105.65594927 25.16649572 115.00606032 25.16705366 124.35618105 C25.16752927 131.95882246 25.16958624 139.5614618 25.17275429 147.16410255 C25.18155855 168.73232212 25.18617404 190.30053672 25.18542381 211.8687581 C25.18538386 213.03089361 25.1853439 214.19302912 25.18530273 215.39038086 C25.18526185 216.55393999 25.18522097 217.71749912 25.18517885 218.91631762 C25.18477249 237.76915379 25.1943402 256.62196998 25.2084411 275.47480037 C25.22281493 294.84582689 25.22971072 314.21684368 25.22884732 333.58787566 C25.22851569 344.4579473 25.23124788 355.32799798 25.24202538 366.1980648 C25.25114364 375.45377172 25.25329475 384.70944819 25.24651595 393.96515765 C25.2432574 398.68382179 25.24317 403.40242758 25.2518692 408.12108612 C25.25976459 412.4484008 25.25827192 416.77561114 25.24958507 421.10292337 C25.24805674 422.66076709 25.24984081 424.21861871 25.25544515 425.7764531 C25.33120209 448.34581156 21.73140346 468.64707448 5.70703125 485.48828125 C-1.16540127 491.86486727 -9.14145814 496.06108124 -18 499 C-19.02351563 499.35707031 -20.04703125 499.71414063 -21.1015625 500.08203125 C-33.55481066 503.55225151 -49.26303721 502.12220052 -61 497 C-61.85078125 496.67257812 -62.7015625 496.34515625 -63.578125 496.0078125 C-77.57673107 489.97696649 -88.10790434 476.74804557 -93.85673898 462.97311407 C-97.91794501 452.41172117 -98.43290331 442.27053509 -98.38768005 431.11720276 C-98.39185942 429.42906416 -98.39734022 427.74092837 -98.40399987 426.05279773 C-98.41839398 421.44170758 -98.41422872 416.83079709 -98.40683305 412.21969736 C-98.40208873 407.23595612 -98.41462234 402.25225304 -98.42485046 397.26852417 C-98.44201863 387.51607372 -98.44288264 377.76368776 -98.43763756 368.01122613 C-98.4335912 360.08255514 -98.43504496 352.15390316 -98.44038582 344.22523308 C-98.44113424 343.09548961 -98.44188266 341.96574614 -98.44265376 340.80176802 C-98.44418529 338.50648793 -98.44572363 336.21120784 -98.44726873 333.91592776 C-98.46098642 312.40711705 -98.45556106 290.89834274 -98.44408352 269.38953286 C-98.4341503 249.72463517 -98.44709467 230.05983155 -98.47101771 210.39494837 C-98.49541622 190.18648415 -98.50501483 169.97806373 -98.49836498 149.76958507 C-98.49487465 138.43064223 -98.4970927 127.09177173 -98.51461601 115.75284004 C-98.52934729 106.10115643 -98.52996118 96.44959615 -98.5125451 86.79791493 C-98.50404073 81.87677124 -98.50187192 76.95584778 -98.51719666 72.03471565 C-98.53107017 67.523656 -98.52624645 63.01300469 -98.50695742 58.5019685 C-98.5032053 56.87626664 -98.50609651 55.25053186 -98.51656907 53.6248594 C-98.62977833 34.69458093 -93.21625068 19.39075654 -79.859375 5.73046875 C-57.94975071 -15.19142658 -24.70949188 -17.2519679 0 0 Z " fill="#F9AB00" transform="translate(450,11)"/>
<path d="M0 0 C14.44596308 12.23894094 21.61234021 28.13714763 23.1875 46.8828125 C23.31159265 49.70649932 23.32720186 52.52365528 23.32121277 55.34977722 C23.32347833 56.15204894 23.32574388 56.95432066 23.32807809 57.78090364 C23.33435823 60.44273662 23.33359261 63.1045179 23.33276367 65.76635742 C23.33575893 67.68583237 23.33916231 69.60530671 23.34294128 71.52478027 C23.35174886 76.72130584 23.35411805 81.91781491 23.35475707 87.11434722 C23.3554695 90.36670778 23.35760749 93.61906419 23.36025429 96.87142372 C23.36949752 108.23435353 23.37359052 119.59727163 23.37280273 130.96020508 C23.37220246 141.52506014 23.382747 152.08986405 23.3985464 162.65470618 C23.4116557 171.74717802 23.4169852 180.83963321 23.41634732 189.93211442 C23.4160933 195.35278868 23.41889135 200.77341748 23.42952538 206.19408226 C23.43926337 211.2970369 23.43924673 216.39990313 23.43200874 221.50286102 C23.4309699 223.36594333 23.43328368 225.2290313 23.4393692 227.09210396 C23.51061069 250.43144428 20.68546271 271.72425274 3.89453125 289.37109375 C-2.97790127 295.74767977 -10.95395814 299.94389374 -19.8125 302.8828125 C-20.83601563 303.23988281 -21.85953125 303.59695313 -22.9140625 303.96484375 C-35.36731066 307.43506401 -51.07553721 306.00501302 -62.8125 300.8828125 C-63.66328125 300.55539062 -64.5140625 300.22796875 -65.390625 299.890625 C-79.38048974 293.86354491 -89.94975201 280.62367875 -95.66930294 266.8406229 C-100.25230169 254.98296349 -100.24756756 243.60566075 -100.21655273 231.08227539 C-100.22226341 228.99324683 -100.22923035 226.90422139 -100.23735046 224.81520081 C-100.25521914 219.17054506 -100.25412543 213.52604531 -100.24840808 207.88136983 C-100.24530734 203.15737279 -100.25141845 198.43340533 -100.25744683 193.70941252 C-100.27146957 182.55991185 -100.26994929 171.41048785 -100.25854492 160.26098633 C-100.2470637 148.78314615 -100.26114474 137.30553964 -100.2879414 125.82773024 C-100.31013625 115.94879393 -100.3167273 106.06993077 -100.31086498 96.19097131 C-100.30750356 90.30140644 -100.30985646 84.41199134 -100.32711601 78.52244759 C-100.3426436 72.98271256 -100.33856513 67.44332238 -100.31981087 61.90360069 C-100.31614119 59.87884204 -100.31918576 57.85405751 -100.32969666 55.82932281 C-100.42707826 35.50825692 -96.30880248 19.58269825 -81.671875 4.61328125 C-59.11542957 -16.92627524 -24.97194166 -18.79832275 0 0 Z " fill="#E37300" transform="translate(291.8125,207.1171875)"/>
<path d="M0 0 C13.20897149 10.37517288 21.7195204 25.20944268 23.96191406 41.87646484 C25.68901084 59.41129467 21.03089747 75.05196824 10.43066406 89.10693359 C3.13787656 97.64551397 -5.45494127 103.37500581 -15.75683594 107.73193359 C-16.55992188 108.07353516 -17.36300781 108.41513672 -18.19042969 108.76708984 C-31.60470147 113.38159934 -48.84562857 112.32311171 -61.75683594 106.73193359 C-62.62050781 106.38130859 -63.48417969 106.03068359 -64.37402344 105.66943359 C-79.22450251 99.00753644 -89.59663459 86.57241867 -95.75683594 71.73193359 C-96.23636719 70.59498047 -96.23636719 70.59498047 -96.72558594 69.43505859 C-101.90305567 54.38204474 -99.99325311 35.72027014 -93.24902344 21.56787109 C-85.33881663 7.03516557 -73.45496541 -3.78777313 -57.75683594 -9.26806641 C-37.35914403 -14.65981299 -17.3672795 -12.53552664 0 0 Z " fill="#E37300" transform="translate(130.7568359375,401.26806640625)"/>
</svg>
