<?xml version="1.0" encoding="UTF-8"?>
<!DOCTYPE svg PUBLIC "-//W3C//DTD SVG 1.1//EN" "http://www.w3.org/Graphics/SVG/1.1/DTD/svg11.dtd">
<svg xmlns="http://www.w3.org/2000/svg" version="1.1" width="400px" height="300px" style="shape-rendering:geometricPrecision; text-rendering:geometricPrecision; image-rendering:optimizeQuality; fill-rule:evenodd; clip-rule:evenodd" xmlns:xlink="http://www.w3.org/1999/xlink">
<g><path style="opacity:0.995" fill="#8ab4f8" d="M 190.5,-0.5 C 196.5,-0.5 202.5,-0.5 208.5,-0.5C 214.184,1.51066 219.517,4.344 224.5,8C 263.667,47.1667 302.833,86.3333 342,125.5C 349.06,135.443 351.393,146.443 349,158.5C 347.388,164.391 344.721,169.725 341,174.5C 304.27,211.73 267.104,248.397 229.5,284.5C 241.451,262.642 237.451,244.308 217.5,229.5C 211.477,222.48 205.477,215.48 199.5,208.5C 218.785,188.881 238.118,169.214 257.5,149.5C 238.479,129.812 219.146,110.479 199.5,91.5C 190.257,80.7536 180.424,70.4203 170,60.5C 160.246,44.8805 160.079,29.2139 169.5,13.5C 175.019,6.57633 182.019,1.90967 190.5,-0.5 Z"/></g>
<g><path style="opacity:0.991" fill="#4285f3" d="M 169.5,13.5 C 160.079,29.2139 160.246,44.8805 170,60.5C 180.424,70.4203 190.257,80.7536 199.5,91.5C 179.854,110.479 160.521,129.812 141.5,149.5C 160.158,169.824 179.491,189.491 199.5,208.5C 205.477,215.48 211.477,222.48 217.5,229.5C 191.827,219.771 173.66,227.438 163,252.5C 160.985,263.939 162.818,274.605 168.5,284.5C 131.535,248.035 94.7013,211.368 58,174.5C 50.0013,164.487 47.3347,153.154 50,140.5C 51.5297,135.108 53.863,130.108 57,125.5C 94.368,87.9652 131.868,50.6319 169.5,13.5 Z"/></g>
<g><path style="opacity:0.996" fill="#246fdb" d="M 217.5,229.5 C 237.451,244.308 241.451,262.642 229.5,284.5C 224.015,291.732 217.015,296.732 208.5,299.5C 202.5,299.5 196.5,299.5 190.5,299.5C 181.547,297.013 174.214,292.013 168.5,284.5C 162.818,274.605 160.985,263.939 163,252.5C 173.66,227.438 191.827,219.771 217.5,229.5 Z"/></g>
</svg>
