<?xml version="1.0" encoding="UTF-8"?>
<!DOCTYPE svg PUBLIC "-//W3C//DTD SVG 1.1//EN" "http://www.w3.org/Graphics/SVG/1.1/DTD/svg11.dtd">
<svg xmlns="http://www.w3.org/2000/svg" version="1.1" width="512px" height="512px" style="shape-rendering:geometricPrecision; text-rendering:geometricPrecision; image-rendering:optimizeQuality; fill-rule:evenodd; clip-rule:evenodd" xmlns:xlink="http://www.w3.org/1999/xlink">
<g><path style="opacity:0.986" fill="#ff7958" d="M 85.5,25.5 C 115.881,22.7569 134.714,36.0902 142,65.5C 142.175,72.4241 142.342,79.2575 142.5,86C 192.6,122.467 242.434,159.301 292,196.5C 303.75,190.195 316.25,186.195 329.5,184.5C 329.833,166.155 329.5,147.821 328.5,129.5C 306.424,116.584 299.591,97.9171 308,73.5C 319.602,51.6181 337.435,43.7847 361.5,50C 386.622,62.7547 394.789,82.588 386,109.5C 381.306,118.36 374.473,125.027 365.5,129.5C 364.167,147.833 364.167,166.167 365.5,184.5C 416.155,195.655 447.988,226.322 461,276.5C 469.094,326.918 452.928,367.418 412.5,398C 365.874,426.153 320.04,424.986 275,394.5C 260.333,409.167 245.667,423.833 231,438.5C 235.237,461.533 226.404,477.033 204.5,485C 179.842,488.609 164.676,478.443 159,454.5C 158.137,429.195 170.304,415.195 195.5,412.5C 199.887,413.083 204.22,413.583 208.5,414C 223.014,399.653 237.347,385.153 251.5,370.5C 225.878,333.18 221.712,293.514 239,251.5C 245.174,237.993 253.674,226.16 264.5,216C 216.249,181.25 167.582,147.083 118.5,113.5C 95.5813,124.558 75.4147,120.891 58,102.5C 44.4101,83.0762 44.0768,63.4095 57,43.5C 64.7681,34.5446 74.2681,28.5446 85.5,25.5 Z M 335.5,239.5 C 374.308,237.159 398.141,254.826 407,292.5C 407.715,334.121 387.382,357.454 346,362.5C 308.812,358.646 288.312,338.146 284.5,301C 287.176,268.501 304.176,248.001 335.5,239.5 Z"/></g>
</svg>
