<?xml version="1.0" encoding="UTF-8"?>
<!DOCTYPE svg PUBLIC "-//W3C//DTD SVG 1.1//EN" "http://www.w3.org/Graphics/SVG/1.1/DTD/svg11.dtd">
<svg xmlns="http://www.w3.org/2000/svg" version="1.1" width="300px" height="300px" style="shape-rendering:geometricPrecision; text-rendering:geometricPrecision; image-rendering:optimizeQuality; fill-rule:evenodd; clip-rule:evenodd" xmlns:xlink="http://www.w3.org/1999/xlink">
<g><path style="opacity:0.557" fill="#a7dccc" d="M 156.5,50.5 C 151.833,50.5 147.167,50.5 142.5,50.5C 147.151,47.9609 151.818,47.9609 156.5,50.5 Z"/></g>
<g><path style="opacity:0.4" fill="#b6e0d0" d="M 140.5,51.5 C 140.167,52.5 139.5,53.1667 138.5,53.5C 138.167,53.5 137.833,53.5 137.5,53.5C 137.973,52.0937 138.973,51.427 140.5,51.5 Z"/></g>
<g><path style="opacity:1" fill="#74cfa4" d="M 156.5,50.5 C 160.054,51.7693 163.054,53.7693 165.5,56.5C 162.821,55.7739 160.154,54.9406 157.5,54C 157.833,53.6667 158.167,53.3333 158.5,53C 157.244,52.5831 156.577,51.7498 156.5,50.5 Z"/></g>
<g><path style="opacity:0.963" fill="#5ccb98" d="M 137.5,53.5 C 137.833,53.5 138.167,53.5 138.5,53.5C 141.362,56.3311 140.862,56.9977 137,55.5C 135.131,56.3687 134.631,57.5354 135.5,59C 133.172,58.1963 130.839,58.3629 128.5,59.5C 130.975,56.7589 133.975,54.7589 137.5,53.5 Z"/></g>
<g><path style="opacity:1" fill="#6dcd9e" d="M 167.5,57.5 C 170.135,58.8109 172.469,60.4776 174.5,62.5C 172.161,61.3629 169.828,61.1963 167.5,62C 168.413,60.5861 168.413,59.0861 167.5,57.5 Z"/></g>
<g><path style="opacity:0.925" fill="#7bd2ac" d="M 175.5,62.5 C 178.473,64.1468 181.14,66.1468 183.5,68.5C 179.485,68.0865 176.818,66.0865 175.5,62.5 Z"/></g>
<g><path style="opacity:1" fill="#0ec37e" d="M 142.5,50.5 C 147.167,50.5 151.833,50.5 156.5,50.5C 156.577,51.7498 157.244,52.5831 158.5,53C 158.167,53.3333 157.833,53.6667 157.5,54C 160.154,54.9406 162.821,55.7739 165.5,56.5C 166.492,56.3284 167.158,56.6618 167.5,57.5C 168.413,59.0861 168.413,60.5861 167.5,62C 169.828,61.1963 172.161,61.3629 174.5,62.5C 174.833,62.5 175.167,62.5 175.5,62.5C 176.818,66.0865 179.485,68.0865 183.5,68.5C 183.833,68.5 184.167,68.5 184.5,68.5C 185.608,72.4041 188.275,74.4041 192.5,74.5C 202.084,80.0794 211.418,86.0794 220.5,92.5C 220.709,93.9217 221.209,95.255 222,96.5C 222.667,95.1667 223.333,95.1667 224,96.5C 224.749,97.635 224.583,98.635 223.5,99.5C 221.867,97.497 219.867,96.1637 217.5,95.5C 217.762,96.9778 217.429,98.3112 216.5,99.5C 212.351,98.2313 208.018,97.5646 203.5,97.5C 194.779,99.2527 186.279,98.586 178,95.5C 158.809,96.8016 139.809,96.8016 121,95.5C 116.974,95.997 113.14,96.997 109.5,98.5C 100.843,97.223 92.1763,97.223 83.5,98.5C 80.6027,106.387 75.2693,108.553 67.5,105C 69,104.167 70.1667,103 71,101.5C 73.5861,104.125 76.0861,103.958 78.5,101C 75.3248,101.053 72.6581,100.22 70.5,98.5C 89.2826,84.7239 108.616,71.7239 128.5,59.5C 130.839,58.3629 133.172,58.1963 135.5,59C 134.631,57.5354 135.131,56.3687 137,55.5C 140.862,56.9977 141.362,56.3311 138.5,53.5C 139.5,53.1667 140.167,52.5 140.5,51.5C 140.842,50.6618 141.508,50.3284 142.5,50.5 Z"/></g>
<g><path style="opacity:0.988" fill="#75d1a7" d="M 184.5,68.5 C 187.473,70.1468 190.14,72.1468 192.5,74.5C 188.275,74.4041 185.608,72.4041 184.5,68.5 Z"/></g>
<g><path style="opacity:1" fill="#2ac583" d="M 220.5,92.5 C 228.538,98.179 236.538,103.846 244.5,109.5C 244.5,110.5 244.5,111.5 244.5,112.5C 238.94,112.796 233.273,112.796 227.5,112.5C 227.5,111.5 227.5,110.5 227.5,109.5C 222.516,109.864 217.683,109.197 213,107.5C 210.696,107.318 210.196,107.984 211.5,109.5C 208.662,111.102 205.662,111.602 202.5,111C 204.595,110.444 204.762,109.944 203,109.5C 200.901,110.287 198.734,110.62 196.5,110.5C 195.167,110.167 193.833,109.833 192.5,109.5C 191.01,107.72 189.01,107.054 186.5,107.5C 184.435,107.483 182.435,107.15 180.5,106.5C 180.389,105.883 180.056,105.383 179.5,105C 174.22,103.905 168.887,103.405 163.5,103.5C 151.813,103.334 140.146,103.667 128.5,104.5C 123.089,104.125 118.089,105.125 113.5,107.5C 109.789,108.344 106.123,109.344 102.5,110.5C 102.5,109.5 102.5,108.5 102.5,107.5C 96.6761,107.653 96.3428,106.987 101.5,105.5C 95.5276,104.336 89.5276,104.17 83.5,105C 82.6919,105.308 82.0253,105.808 81.5,106.5C 83.7628,107.65 86.0962,108.65 88.5,109.5C 86.4122,110.489 84.4122,110.156 82.5,108.5C 74.8899,109.467 67.2233,109.8 59.5,109.5C 59.5,108.167 59.5,106.833 59.5,105.5C 62.6505,102.421 66.3171,100.087 70.5,98.5C 72.6581,100.22 75.3248,101.053 78.5,101C 76.0861,103.958 73.5861,104.125 71,101.5C 70.1667,103 69,104.167 67.5,105C 75.2693,108.553 80.6027,106.387 83.5,98.5C 92.1763,97.223 100.843,97.223 109.5,98.5C 113.14,96.997 116.974,95.997 121,95.5C 139.809,96.8016 158.809,96.8016 178,95.5C 186.279,98.586 194.779,99.2527 203.5,97.5C 208.018,97.5646 212.351,98.2313 216.5,99.5C 217.429,98.3112 217.762,96.9778 217.5,95.5C 219.867,96.1637 221.867,97.497 223.5,99.5C 224.583,98.635 224.749,97.635 224,96.5C 223.333,95.1667 222.667,95.1667 222,96.5C 221.209,95.255 220.709,93.9217 220.5,92.5 Z"/></g>
<g><path style="opacity:0.714" fill="#9edfc3" d="M 163.5,103.5 C 168.887,103.405 174.22,103.905 179.5,105C 180.056,105.383 180.389,105.883 180.5,106.5C 174.651,105.804 168.984,104.804 163.5,103.5 Z"/></g>
<g><path style="opacity:0.122" fill="#bdedda" d="M 128.5,104.5 C 123.647,105.604 118.647,106.604 113.5,107.5C 118.089,105.125 123.089,104.125 128.5,104.5 Z"/></g>
<g><path style="opacity:0.208" fill="#97d2bd" d="M 186.5,107.5 C 189.01,107.054 191.01,107.72 192.5,109.5C 190.302,109.125 188.302,108.458 186.5,107.5 Z"/></g>
<g><path style="opacity:1" fill="#3bc882" d="M 102.5,110.5 C 102.167,110.5 101.833,110.5 101.5,110.5C 99.4004,110.523 97.5671,109.856 96,108.5C 94.1886,109.424 94.3553,110.257 96.5,111C 94.5273,111.495 92.5273,111.662 90.5,111.5C 90.5,112.5 90.5,113.5 90.5,114.5C 87.1501,114.665 83.8168,114.498 80.5,114C 78.8724,111.178 76.8724,110.845 74.5,113C 76.0016,113.583 77.3349,114.416 78.5,115.5C 77.6906,117.071 77.3573,118.738 77.5,120.5C 75.1897,121.457 72.8564,122.457 70.5,123.5C 67.835,122.112 66.835,123.112 67.5,126.5C 65.5,126.167 63.5,125.833 61.5,125.5C 61.6399,123.876 60.9733,122.71 59.5,122C 55.5138,121.501 51.5138,121.334 47.5,121.5C 47.5,123.833 47.5,126.167 47.5,128.5C 46.325,128.719 45.325,128.386 44.5,127.5C 45.7059,125.484 45.7059,123.484 44.5,121.5C 43.0256,122.436 42.0256,123.77 41.5,125.5C 38.7075,126.955 36.3741,126.455 34.5,124C 37.2154,123.283 39.3821,121.783 41,119.5C 41.772,119.645 42.4387,119.978 43,120.5C 44.052,117.781 45.552,115.448 47.5,113.5C 51.205,110.474 55.205,107.808 59.5,105.5C 59.5,106.833 59.5,108.167 59.5,109.5C 67.2233,109.8 74.8899,109.467 82.5,108.5C 84.4122,110.156 86.4122,110.489 88.5,109.5C 86.0962,108.65 83.7628,107.65 81.5,106.5C 82.0253,105.808 82.6919,105.308 83.5,105C 89.5276,104.17 95.5276,104.336 101.5,105.5C 96.3428,106.987 96.6761,107.653 102.5,107.5C 102.5,108.5 102.5,109.5 102.5,110.5 Z"/></g>
<g><path style="opacity:1" fill="#4ec984" d="M 244.5,109.5 C 252.442,114.114 260.108,119.114 267.5,124.5C 267.196,125.15 266.863,125.817 266.5,126.5C 270.09,126.968 273.09,128.468 275.5,131C 270.902,131.243 266.402,131.41 262,131.5C 260.189,130.576 260.355,129.743 262.5,129C 260.757,126.936 258.757,126.436 256.5,127.5C 257.167,128.5 257.833,129.5 258.5,130.5C 255.933,131.854 253.599,131.52 251.5,129.5C 247.624,129.878 243.957,130.878 240.5,132.5C 238.466,131.441 236.466,130.441 234.5,129.5C 222.352,122.093 209.686,115.759 196.5,110.5C 198.734,110.62 200.901,110.287 203,109.5C 204.762,109.944 204.595,110.444 202.5,111C 205.662,111.602 208.662,111.102 211.5,109.5C 210.196,107.984 210.696,107.318 213,107.5C 217.683,109.197 222.516,109.864 227.5,109.5C 227.5,110.5 227.5,111.5 227.5,112.5C 233.273,112.796 238.94,112.796 244.5,112.5C 244.5,111.5 244.5,110.5 244.5,109.5 Z"/></g>
<g><path style="opacity:1" fill="#59ca86" d="M 101.5,110.5 C 87.3218,115.922 73.9885,122.922 61.5,131.5C 59.5005,132.626 57.5005,132.793 55.5,132C 55.9574,132.414 56.2907,132.914 56.5,133.5C 55.7261,134.711 54.8928,134.711 54,133.5C 53.6667,134.833 53.3333,136.167 53,137.5C 51.414,136.624 49.914,135.624 48.5,134.5C 44.5191,135.766 40.3525,136.432 36,136.5C 32.1667,136.333 28.3333,136.167 24.5,136C 23.6872,134.686 22.6872,133.519 21.5,132.5C 22.6119,131.735 23.2786,130.735 23.5,129.5C 31.1191,123.684 39.1191,118.35 47.5,113.5C 45.552,115.448 44.052,117.781 43,120.5C 42.4387,119.978 41.772,119.645 41,119.5C 39.3821,121.783 37.2154,123.283 34.5,124C 36.3741,126.455 38.7075,126.955 41.5,125.5C 42.0256,123.77 43.0256,122.436 44.5,121.5C 45.7059,123.484 45.7059,125.484 44.5,127.5C 45.325,128.386 46.325,128.719 47.5,128.5C 47.5,126.167 47.5,123.833 47.5,121.5C 51.5138,121.334 55.5138,121.501 59.5,122C 60.9733,122.71 61.6399,123.876 61.5,125.5C 63.5,125.833 65.5,126.167 67.5,126.5C 66.835,123.112 67.835,122.112 70.5,123.5C 72.8564,122.457 75.1897,121.457 77.5,120.5C 77.3573,118.738 77.6906,117.071 78.5,115.5C 77.3349,114.416 76.0016,113.583 74.5,113C 76.8724,110.845 78.8724,111.178 80.5,114C 83.8168,114.498 87.1501,114.665 90.5,114.5C 90.5,113.5 90.5,112.5 90.5,111.5C 92.5273,111.662 94.5273,111.495 96.5,111C 94.3553,110.257 94.1886,109.424 96,108.5C 97.5671,109.856 99.4004,110.523 101.5,110.5 Z"/></g>
<g><path style="opacity:1" fill="#66cb87" d="M 267.5,124.5 C 271.439,126.446 275.106,128.779 278.5,131.5C 280.167,133.5 281.833,135.5 283.5,137.5C 283.417,139.57 282.417,139.903 280.5,138.5C 279.263,138.556 278.263,139.056 277.5,140C 268.84,140.5 260.173,140.666 251.5,140.5C 251.5,141.833 251.5,143.167 251.5,144.5C 245.605,139.725 239.938,134.725 234.5,129.5C 236.466,130.441 238.466,131.441 240.5,132.5C 243.957,130.878 247.624,129.878 251.5,129.5C 253.599,131.52 255.933,131.854 258.5,130.5C 257.833,129.5 257.167,128.5 256.5,127.5C 258.757,126.436 260.757,126.936 262.5,129C 260.355,129.743 260.189,130.576 262,131.5C 266.402,131.41 270.902,131.243 275.5,131C 273.09,128.468 270.09,126.968 266.5,126.5C 266.863,125.817 267.196,125.15 267.5,124.5 Z"/></g>
<g><path style="opacity:0.36" fill="#d2f2db" d="M 174.5,141.5 C 155.021,138.395 135.688,139.062 116.5,143.5C 120.205,141.736 124.205,140.569 128.5,140C 144.077,136.634 159.41,137.134 174.5,141.5 Z"/></g>
<g><path style="opacity:0.839" fill="#a1d7b2" d="M 278.5,131.5 C 285.052,134.273 290.719,138.273 295.5,143.5C 292.726,141.944 290.059,140.111 287.5,138C 286.207,137.51 284.873,137.343 283.5,137.5C 281.833,135.5 280.167,133.5 278.5,131.5 Z"/></g>
<g><path style="opacity:0.016" fill="#def7e8" d="M 174.5,141.5 C 177.152,141.41 179.485,142.076 181.5,143.5C 178.848,143.59 176.515,142.924 174.5,141.5 Z"/></g>
<g><path style="opacity:1" fill="#70cd86" d="M 23.5,129.5 C 23.2786,130.735 22.6119,131.735 21.5,132.5C 22.6872,133.519 23.6872,134.686 24.5,136C 28.3333,136.167 32.1667,136.333 36,136.5C 40.3525,136.432 44.5191,135.766 48.5,134.5C 49.914,135.624 51.414,136.624 53,137.5C 53.3333,136.167 53.6667,134.833 54,133.5C 54.8928,134.711 55.7261,134.711 56.5,133.5C 56.2907,132.914 55.9574,132.414 55.5,132C 57.5005,132.793 59.5005,132.626 61.5,131.5C 56.1557,136.843 50.489,141.843 44.5,146.5C 43.0772,145.551 41.5772,144.551 40,143.5C 37.7343,145.016 36.2343,147.016 35.5,149.5C 27.4931,149.666 19.4931,149.5 11.5,149C 10.1236,146.457 8.95697,146.291 8,148.5C 7.13053,145.237 5.79719,144.904 4,147.5C 3.50258,150.146 3.33591,152.813 3.5,155.5C 1.0364,151.722 0.869737,147.722 3,143.5C 9.28405,137.948 16.1174,133.281 23.5,129.5 Z"/></g>
<g><path style="opacity:1" fill="#73ce84" d="M 283.5,137.5 C 284.873,137.343 286.207,137.51 287.5,138C 290.059,140.111 292.726,141.944 295.5,143.5C 296.368,146.673 296.368,149.673 295.5,152.5C 294.778,152.918 294.278,153.584 294,154.5C 293.503,152.19 293.337,149.857 293.5,147.5C 292.5,147.5 291.5,147.5 290.5,147.5C 292.684,152.446 291.684,156.612 287.5,160C 286.035,160.601 285.035,160.101 284.5,158.5C 285.325,157.614 286.325,157.281 287.5,157.5C 287.5,156.167 287.5,154.833 287.5,153.5C 279.248,153.184 271.081,153.518 263,154.5C 262.667,152.833 262.333,151.167 262,149.5C 261.439,150.022 260.772,150.355 260,150.5C 257.198,149.381 255.698,147.381 255.5,144.5C 254.167,144.5 252.833,144.5 251.5,144.5C 251.5,143.167 251.5,141.833 251.5,140.5C 260.173,140.666 268.84,140.5 277.5,140C 278.263,139.056 279.263,138.556 280.5,138.5C 282.417,139.903 283.417,139.57 283.5,137.5 Z"/></g>
<g><path style="opacity:0.722" fill="#a6daae" d="M 116.5,143.5 C 115.972,144.721 115.305,145.887 114.5,147C 109.351,147.078 104.685,148.578 100.5,151.5C 98.9582,152.301 97.2915,152.634 95.5,152.5C 102.025,148.542 109.025,145.542 116.5,143.5 Z"/></g>
<g><path style="opacity:0.184" fill="#cae8cb" d="M 295.5,143.5 C 296.972,145.117 297.639,147.117 297.5,149.5C 297.639,151.883 296.972,153.883 295.5,155.5C 295.5,154.5 295.5,153.5 295.5,152.5C 296.368,149.673 296.368,146.673 295.5,143.5 Z"/></g>
<g><path style="opacity:1" fill="#75ce84" d="M 174.5,141.5 C 176.515,142.924 178.848,143.59 181.5,143.5C 185.137,144.263 188.47,145.597 191.5,147.5C 191.5,147.833 191.5,148.167 191.5,148.5C 187.963,149.602 184.63,151.268 181.5,153.5C 160.86,152.523 140.194,152.189 119.5,152.5C 119.5,151.5 119.5,150.5 119.5,149.5C 113.779,151.941 107.946,153.274 102,153.5C 100.97,153.164 100.47,152.497 100.5,151.5C 104.685,148.578 109.351,147.078 114.5,147C 115.305,145.887 115.972,144.721 116.5,143.5C 135.688,139.062 155.021,138.395 174.5,141.5 Z"/></g>
<g><path style="opacity:1" fill="#7ed184" d="M 44.5,146.5 C 42.5281,150.105 39.8615,153.105 36.5,155.5C 34.629,155.859 33.129,156.859 32,158.5C 30.3314,160.861 28.6648,163.194 27,165.5C 26.5172,166.448 26.3505,167.448 26.5,168.5C 24.7839,168.371 23.1172,168.038 21.5,167.5C 22.7196,165.718 23.3862,163.718 23.5,161.5C 22.5,161.5 21.5,161.5 20.5,161.5C 20.5,162.5 20.5,163.5 20.5,164.5C 15.7566,163.859 15.4232,162.359 19.5,160C 16.8058,158.512 14.4725,158.679 12.5,160.5C 10.7539,158.146 8.42057,157.146 5.5,157.5C 4.5,157.167 3.83333,156.5 3.5,155.5C 3.33591,152.813 3.50258,150.146 4,147.5C 5.79719,144.904 7.13053,145.237 8,148.5C 8.95697,146.291 10.1236,146.457 11.5,149C 19.4931,149.5 27.4931,149.666 35.5,149.5C 36.2343,147.016 37.7343,145.016 40,143.5C 41.5772,144.551 43.0772,145.551 44.5,146.5 Z"/></g>
<g><path style="opacity:1" fill="#7fd184" d="M 191.5,148.5 C 195.718,151.715 200.384,154.048 205.5,155.5C 205.063,157.074 204.063,158.241 202.5,159C 166.833,159.333 131.167,159.667 95.5,160C 91.9147,163.321 90.248,162.821 90.5,158.5C 91.7804,157.069 93.4471,156.402 95.5,156.5C 95.5,155.167 95.5,153.833 95.5,152.5C 97.2915,152.634 98.9582,152.301 100.5,151.5C 100.47,152.497 100.97,153.164 102,153.5C 107.946,153.274 113.779,151.941 119.5,149.5C 119.5,150.5 119.5,151.5 119.5,152.5C 140.194,152.189 160.86,152.523 181.5,153.5C 184.63,151.268 187.963,149.602 191.5,148.5 Z"/></g>
<g><path style="opacity:0.999" fill="#89d18a" d="M 251.5,144.5 C 252.833,144.5 254.167,144.5 255.5,144.5C 255.698,147.381 257.198,149.381 260,150.5C 260.772,150.355 261.439,150.022 262,149.5C 262.333,151.167 262.667,152.833 263,154.5C 271.081,153.518 279.248,153.184 287.5,153.5C 287.5,154.833 287.5,156.167 287.5,157.5C 286.325,157.281 285.325,157.614 284.5,158.5C 285.035,160.101 286.035,160.601 287.5,160C 291.684,156.612 292.684,152.446 290.5,147.5C 291.5,147.5 292.5,147.5 293.5,147.5C 293.337,149.857 293.503,152.19 294,154.5C 294.278,153.584 294.778,152.918 295.5,152.5C 295.5,153.5 295.5,154.5 295.5,155.5C 292.09,159.238 288.09,162.238 283.5,164.5C 281.473,164.338 279.473,164.505 277.5,165C 277.957,165.414 278.291,165.914 278.5,166.5C 276.579,167.324 275.246,168.657 274.5,170.5C 274.565,170.938 274.399,171.272 274,171.5C 267.072,162.067 259.572,153.067 251.5,144.5 Z"/></g>
<g><path style="opacity:0.796" fill="#a4d6a8" d="M 191.5,147.5 C 203.813,151.65 214.479,158.317 223.5,167.5C 219.33,167.312 216.663,165.312 215.5,161.5C 212.5,160.833 209.5,160.167 206.5,159.5C 206.768,157.901 206.434,156.568 205.5,155.5C 200.384,154.048 195.718,151.715 191.5,148.5C 191.5,148.167 191.5,147.833 191.5,147.5 Z"/></g>
<g><path style="opacity:0.925" fill="#a1d4a2" d="M 95.5,152.5 C 95.5,153.833 95.5,155.167 95.5,156.5C 93.4471,156.402 91.7804,157.069 90.5,158.5C 88.412,159.939 86.0786,160.606 83.5,160.5C 87.1477,157.34 91.1477,154.673 95.5,152.5 Z"/></g>
<g><path style="opacity:1" fill="#97d292" d="M 5.5,157.5 C 8.42057,157.146 10.7539,158.146 12.5,160.5C 14.4725,158.679 16.8058,158.512 19.5,160C 15.4232,162.359 15.7566,163.859 20.5,164.5C 20.5,163.5 20.5,162.5 20.5,161.5C 21.5,161.5 22.5,161.5 23.5,161.5C 23.3862,163.718 22.7196,165.718 21.5,167.5C 20.609,166.89 19.609,166.557 18.5,166.5C 13.8859,163.883 9.55262,160.883 5.5,157.5 Z"/></g>
<g><path style="opacity:0.8" fill="#abd7a6" d="M 36.5,155.5 C 33.0777,160.769 29.411,165.936 25.5,171C 24.8333,171.667 24.1667,171.667 23.5,171C 21.7605,169.483 20.0938,167.983 18.5,166.5C 19.609,166.557 20.609,166.89 21.5,167.5C 23.1172,168.038 24.7839,168.371 26.5,168.5C 26.3505,167.448 26.5172,166.448 27,165.5C 28.6648,163.194 30.3314,160.861 32,158.5C 33.129,156.859 34.629,155.859 36.5,155.5 Z"/></g>
<g><path style="opacity:1" fill="#91d382" d="M 205.5,155.5 C 206.434,156.568 206.768,157.901 206.5,159.5C 209.5,160.167 212.5,160.833 215.5,161.5C 216.663,165.312 219.33,167.312 223.5,167.5C 226.05,169.077 228.05,171.077 229.5,173.5C 229.5,174.167 229.5,174.833 229.5,175.5C 228.167,175.833 226.833,176.167 225.5,176.5C 225.414,175.504 225.748,174.671 226.5,174C 224.641,172.308 222.641,170.808 220.5,169.5C 201.676,170.186 182.842,170.853 164,171.5C 157.218,169.642 150.385,169.309 143.5,170.5C 147.5,171.167 151.5,171.833 155.5,172.5C 145.26,173.472 135.093,173.139 125,171.5C 108.886,172.438 92.7194,172.938 76.5,173C 76.8541,171.374 76.8541,169.541 76.5,167.5C 77.1667,166.5 77.8333,165.5 78.5,164.5C 79.5794,162.457 81.246,161.124 83.5,160.5C 86.0786,160.606 88.412,159.939 90.5,158.5C 90.248,162.821 91.9147,163.321 95.5,160C 131.167,159.667 166.833,159.333 202.5,159C 204.063,158.241 205.063,157.074 205.5,155.5 Z"/></g>
<g><path style="opacity:0.345" fill="#c6e0c1" d="M 283.5,164.5 C 281.025,167.241 278.025,169.241 274.5,170.5C 275.246,168.657 276.579,167.324 278.5,166.5C 278.291,165.914 277.957,165.414 277.5,165C 279.473,164.505 281.473,164.338 283.5,164.5 Z"/></g>
<g><path style="opacity:0.275" fill="#d9f0d0" d="M 78.5,164.5 C 77.8333,165.5 77.1667,166.5 76.5,167.5C 72.1205,171.55 67.7871,175.55 63.5,179.5C 67.5212,173.479 72.5212,168.479 78.5,164.5 Z"/></g>
<g><path style="opacity:1" fill="#9dd57e" d="M 76.5,167.5 C 76.8541,169.541 76.8541,171.374 76.5,173C 92.7194,172.938 108.886,172.438 125,171.5C 135.093,173.139 145.26,173.472 155.5,172.5C 151.5,171.833 147.5,171.167 143.5,170.5C 150.385,169.309 157.218,169.642 164,171.5C 182.842,170.853 201.676,170.186 220.5,169.5C 222.641,170.808 224.641,172.308 226.5,174C 225.748,174.671 225.414,175.504 225.5,176.5C 218.123,178.12 210.457,179.453 202.5,180.5C 195.188,180.169 188.021,179.836 181,179.5C 180.5,179.667 180,179.833 179.5,180C 180.942,180.377 181.942,181.21 182.5,182.5C 178.784,180.469 174.784,179.469 170.5,179.5C 169.209,179.737 168.209,179.404 167.5,178.5C 164.132,176.941 160.465,176.108 156.5,176C 146.441,175.281 136.441,175.781 126.5,177.5C 120.235,180.679 113.902,183.679 107.5,186.5C 104.653,185.29 101.819,185.623 99,187.5C 98.6397,185.579 97.8064,183.912 96.5,182.5C 87.3321,184.193 77.9988,185.193 68.5,185.5C 67.3279,185.081 66.3279,184.415 65.5,183.5C 64.5832,184.127 63.5832,184.461 62.5,184.5C 63.3007,182.958 63.634,181.292 63.5,179.5C 67.7871,175.55 72.1205,171.55 76.5,167.5 Z"/></g>
<g><path style="opacity:0.482" fill="#d1e8c3" d="M 229.5,173.5 C 232.573,175.569 234.906,178.236 236.5,181.5C 234.167,179.5 231.833,177.5 229.5,175.5C 229.5,174.833 229.5,174.167 229.5,173.5 Z"/></g>
<g><path style="opacity:1" fill="#aad87b" d="M 229.5,175.5 C 231.833,177.5 234.167,179.5 236.5,181.5C 238.262,182.262 239.262,183.596 239.5,185.5C 240.63,187.315 241.296,189.315 241.5,191.5C 240.167,191.5 238.833,191.5 237.5,191.5C 237.906,189.891 237.906,188.557 237.5,187.5C 236.77,188.934 235.77,190.1 234.5,191C 235.167,191.333 235.833,191.667 236.5,192C 233.553,191.848 230.553,191.681 227.5,191.5C 223.317,191.137 219.317,191.804 215.5,193.5C 209.641,192.291 203.974,190.624 198.5,188.5C 196.358,189.437 196.024,190.77 197.5,192.5C 196.833,192.5 196.167,192.5 195.5,192.5C 195.5,191.167 195.5,189.833 195.5,188.5C 193.712,188.785 192.045,188.452 190.5,187.5C 191.59,186.391 191.59,185.391 190.5,184.5C 188.177,185.672 185.844,185.672 183.5,184.5C 183.167,183.833 182.833,183.167 182.5,182.5C 181.942,181.21 180.942,180.377 179.5,180C 180,179.833 180.5,179.667 181,179.5C 188.021,179.836 195.188,180.169 202.5,180.5C 210.457,179.453 218.123,178.12 225.5,176.5C 226.833,176.167 228.167,175.833 229.5,175.5 Z"/></g>
<g><path style="opacity:0.553" fill="#cbe4b2" d="M 167.5,178.5 C 142.045,173.53 119.379,179.197 99.5,195.5C 101.541,191.801 104.208,188.801 107.5,186.5C 113.902,183.679 120.235,180.679 126.5,177.5C 136.441,175.781 146.441,175.281 156.5,176C 160.465,176.108 164.132,176.941 167.5,178.5 Z"/></g>
<g><path style="opacity:0.357" fill="#d1e8c0" d="M 170.5,179.5 C 174.784,179.469 178.784,180.469 182.5,182.5C 182.833,183.167 183.167,183.833 183.5,184.5C 178.989,183.069 174.655,181.402 170.5,179.5 Z"/></g>
<g><path style="opacity:1" fill="#c5e1a0" d="M 183.5,184.5 C 185.844,185.672 188.177,185.672 190.5,184.5C 191.59,185.391 191.59,186.391 190.5,187.5C 192.045,188.452 193.712,188.785 195.5,188.5C 195.5,189.833 195.5,191.167 195.5,192.5C 191.223,190.218 187.223,187.551 183.5,184.5 Z"/></g>
<g><path style="opacity:0.369" fill="#d0e2b3" d="M 63.5,179.5 C 63.634,181.292 63.3007,182.958 62.5,184.5C 60.0574,185.499 58.3908,187.332 57.5,190C 58.4295,191.077 59.0962,192.244 59.5,193.5C 58.5041,193.586 57.6708,193.252 57,192.5C 57.0009,187.165 59.1675,182.831 63.5,179.5 Z"/></g>
<g><path style="opacity:1" fill="#b3d97a" d="M 107.5,186.5 C 104.208,188.801 101.541,191.801 99.5,195.5C 97.0757,198.656 94.409,201.656 91.5,204.5C 91.0217,201.722 92.0217,199.722 94.5,198.5C 93.6195,197.029 92.2861,196.196 90.5,196C 92.5675,195.313 94.5675,195.48 96.5,196.5C 97.8304,194.653 97.497,193.153 95.5,192C 84.3867,191.585 73.3867,191.752 62.5,192.5C 62.5,193.5 62.5,194.5 62.5,195.5C 66.4063,196.99 70.4063,198.656 74.5,200.5C 75.4287,201.689 75.762,203.022 75.5,204.5C 69.6117,201.607 64.2783,197.94 59.5,193.5C 59.0962,192.244 58.4295,191.077 57.5,190C 58.3908,187.332 60.0574,185.499 62.5,184.5C 63.5832,184.461 64.5832,184.127 65.5,183.5C 66.3279,184.415 67.3279,185.081 68.5,185.5C 77.9988,185.193 87.3321,184.193 96.5,182.5C 97.8064,183.912 98.6397,185.579 99,187.5C 101.819,185.623 104.653,185.29 107.5,186.5 Z"/></g>
<g><path style="opacity:1" fill="#bcda6e" d="M 227.5,191.5 C 228.355,192.531 229.022,193.697 229.5,195C 227.55,198.456 224.884,200.956 221.5,202.5C 221.657,201.127 221.49,199.793 221,198.5C 220.456,201.625 219.623,204.625 218.5,207.5C 215.996,208.639 213.33,209.306 210.5,209.5C 209.088,207.002 207.921,204.336 207,201.5C 205.989,200.663 204.822,200.33 203.5,200.5C 201.909,197.569 199.909,194.902 197.5,192.5C 196.024,190.77 196.358,189.437 198.5,188.5C 203.974,190.624 209.641,192.291 215.5,193.5C 219.317,191.804 223.317,191.137 227.5,191.5 Z"/></g>
<g><path style="opacity:1" fill="#c3dd84" d="M 239.5,185.5 C 242.254,187.053 243.087,189.386 242,192.5C 240.259,193.758 238.426,194.758 236.5,195.5C 234.833,195.5 233.167,195.5 231.5,195.5C 231.608,197.514 230.942,199.18 229.5,200.5C 226.106,203.221 222.439,205.554 218.5,207.5C 219.623,204.625 220.456,201.625 221,198.5C 221.49,199.793 221.657,201.127 221.5,202.5C 224.884,200.956 227.55,198.456 229.5,195C 229.022,193.697 228.355,192.531 227.5,191.5C 230.553,191.681 233.553,191.848 236.5,192C 235.833,191.667 235.167,191.333 234.5,191C 235.77,190.1 236.77,188.934 237.5,187.5C 237.906,188.557 237.906,189.891 237.5,191.5C 238.833,191.5 240.167,191.5 241.5,191.5C 241.296,189.315 240.63,187.315 239.5,185.5 Z"/></g>
<g><path style="opacity:0.275" fill="#e4efca" d="M 195.5,192.5 C 196.167,192.5 196.833,192.5 197.5,192.5C 199.909,194.902 201.909,197.569 203.5,200.5C 200.5,198.167 197.833,195.5 195.5,192.5 Z"/></g>
<g><path style="opacity:0.831" fill="#dce9b0" d="M 236.5,195.5 C 234.704,197.9 232.37,199.567 229.5,200.5C 230.942,199.18 231.608,197.514 231.5,195.5C 233.167,195.5 234.833,195.5 236.5,195.5 Z"/></g>
<g><path style="opacity:1" fill="#c0db72" d="M 91.5,204.5 C 90.1868,207.305 88.3535,209.638 86,211.5C 82.0208,209.769 78.5208,207.436 75.5,204.5C 75.762,203.022 75.4287,201.689 74.5,200.5C 70.4063,198.656 66.4063,196.99 62.5,195.5C 62.5,194.5 62.5,193.5 62.5,192.5C 73.3867,191.752 84.3867,191.585 95.5,192C 97.497,193.153 97.8304,194.653 96.5,196.5C 94.5675,195.48 92.5675,195.313 90.5,196C 92.2861,196.196 93.6195,197.029 94.5,198.5C 92.0217,199.722 91.0217,201.722 91.5,204.5 Z"/></g>
<g><path style="opacity:0.137" fill="#e9f1c1" d="M 203.5,200.5 C 204.822,200.33 205.989,200.663 207,201.5C 207.921,204.336 209.088,207.002 210.5,209.5C 207.815,206.81 205.482,203.81 203.5,200.5 Z"/></g>
<g><path style="opacity:0.549" fill="#e0e9aa" d="M 218.5,207.5 C 216.983,209.184 215.15,210.517 213,211.5C 211.699,211.361 210.866,210.695 210.5,209.5C 213.33,209.306 215.996,208.639 218.5,207.5 Z"/></g>
<g><path style="opacity:0.412" fill="#f2f5c0" d="M 142.5,212.5 C 139.061,214.204 135.395,215.538 131.5,216.5C 134.626,214.01 138.292,212.677 142.5,212.5 Z"/></g>
<g><path style="opacity:1" fill="#dae164" d="M 155.5,212.5 C 160.332,214.745 165.332,216.745 170.5,218.5C 171.262,220.262 172.596,221.262 174.5,221.5C 176.914,222.911 178.581,224.911 179.5,227.5C 178.5,227.5 177.5,227.5 176.5,227.5C 176.723,224.886 175.556,223.219 173,222.5C 170.886,224.3 168.386,225.3 165.5,225.5C 164.086,223.402 164.752,222.402 167.5,222.5C 167.5,221.5 167.5,220.5 167.5,219.5C 157.582,219.509 147.582,219.509 137.5,219.5C 136.833,220.167 136.167,220.833 135.5,221.5C 133.09,219.232 130.423,218.899 127.5,220.5C 127.833,219.833 128.167,219.167 128.5,218.5C 128.973,217.094 129.973,216.427 131.5,216.5C 135.395,215.538 139.061,214.204 142.5,212.5C 146.833,211.167 151.167,211.167 155.5,212.5 Z"/></g>
<g><path style="opacity:0.196" fill="#edf0b2" d="M 155.5,212.5 C 161.22,212.956 166.22,214.956 170.5,218.5C 165.332,216.745 160.332,214.745 155.5,212.5 Z"/></g>
<g><path style="opacity:0.024" fill="#fbfadf" d="M 170.5,218.5 C 172.404,218.738 173.738,219.738 174.5,221.5C 172.596,221.262 171.262,220.262 170.5,218.5 Z"/></g>
<g><path style="opacity:0.365" fill="#f2f0c8" d="M 128.5,218.5 C 128.167,219.167 127.833,219.833 127.5,220.5C 126.609,221.11 125.609,221.443 124.5,221.5C 125.262,219.738 126.596,218.738 128.5,218.5 Z"/></g>
<g><path style="opacity:1" fill="#dfe251" d="M 165.5,225.5 C 162.91,225.396 160.577,226.063 158.5,227.5C 156.289,227.005 155.955,225.838 157.5,224C 157.37,222.941 156.87,222.108 156,221.5C 155.506,223.134 155.34,224.801 155.5,226.5C 150.946,226.255 146.446,226.588 142,227.5C 140.78,226.612 139.447,225.945 138,225.5C 135.461,226.602 132.961,226.602 130.5,225.5C 129.377,227.289 128.044,227.622 126.5,226.5C 128.461,225.152 128.628,223.819 127,222.5C 124.828,223.509 123.662,225.176 123.5,227.5C 122.167,227.5 120.833,227.5 119.5,227.5C 119.5,227.167 119.5,226.833 119.5,226.5C 120.833,224.5 122.5,222.833 124.5,221.5C 125.609,221.443 126.609,221.11 127.5,220.5C 130.423,218.899 133.09,219.232 135.5,221.5C 136.167,220.833 136.833,220.167 137.5,219.5C 147.582,219.509 157.582,219.509 167.5,219.5C 167.5,220.5 167.5,221.5 167.5,222.5C 164.752,222.402 164.086,223.402 165.5,225.5 Z"/></g>
<g><path style="opacity:1" fill="#e7e447" d="M 165.5,225.5 C 168.386,225.3 170.886,224.3 173,222.5C 175.556,223.219 176.723,224.886 176.5,227.5C 177.5,227.5 178.5,227.5 179.5,227.5C 180.641,229.549 180.641,231.549 179.5,233.5C 178.564,234.974 177.23,235.974 175.5,236.5C 175.167,236.5 174.833,236.5 174.5,236.5C 173.685,234.698 172.185,233.698 170,233.5C 157.239,232.267 144.239,232.267 131,233.5C 131.263,232.049 131.096,230.716 130.5,229.5C 128.599,230.935 128.266,232.602 129.5,234.5C 127.955,235.452 126.288,235.785 124.5,235.5C 124.306,231.995 123.306,231.662 121.5,234.5C 121.167,234.5 120.833,234.5 120.5,234.5C 120.027,233.094 119.027,232.427 117.5,232.5C 116.167,231.5 116.167,230.5 117.5,229.5C 118.5,229.167 119.167,228.5 119.5,227.5C 120.833,227.5 122.167,227.5 123.5,227.5C 123.662,225.176 124.828,223.509 127,222.5C 128.628,223.819 128.461,225.152 126.5,226.5C 128.044,227.622 129.377,227.289 130.5,225.5C 132.961,226.602 135.461,226.602 138,225.5C 139.447,225.945 140.78,226.612 142,227.5C 146.446,226.588 150.946,226.255 155.5,226.5C 155.34,224.801 155.506,223.134 156,221.5C 156.87,222.108 157.37,222.941 157.5,224C 155.955,225.838 156.289,227.005 158.5,227.5C 160.577,226.063 162.91,225.396 165.5,225.5 Z"/></g>
<g><path style="opacity:0.231" fill="#fdf8db" d="M 119.5,226.5 C 119.5,226.833 119.5,227.167 119.5,227.5C 119.167,228.5 118.5,229.167 117.5,229.5C 117.427,227.973 118.094,226.973 119.5,226.5 Z"/></g>
<g><path style="opacity:0.392" fill="#f3f5ab" d="M 179.5,227.5 C 180.947,228.134 181.613,229.301 181.5,231C 181.316,232.376 180.649,233.209 179.5,233.5C 180.641,231.549 180.641,229.549 179.5,227.5 Z"/></g>
<g><path style="opacity:0.145" fill="#faf6dc" d="M 117.5,232.5 C 119.027,232.427 120.027,233.094 120.5,234.5C 118.973,234.573 117.973,233.906 117.5,232.5 Z"/></g>
<g><path style="opacity:0.157" fill="#fcf7d4" d="M 120.5,234.5 C 120.833,234.5 121.167,234.5 121.5,234.5C 122.5,234.833 123.167,235.5 123.5,236.5C 121.973,236.573 120.973,235.906 120.5,234.5 Z"/></g>
<g><path style="opacity:0.322" fill="#fbf9c4" d="M 123.5,236.5 C 125.027,236.427 126.027,237.094 126.5,238.5C 124.973,238.573 123.973,237.906 123.5,236.5 Z"/></g>
<g><path style="opacity:1" fill="#f3e731" d="M 174.5,236.5 C 172.973,236.427 171.973,237.094 171.5,238.5C 171.5,239.167 171.167,239.5 170.5,239.5C 168.821,239.285 167.821,239.952 167.5,241.5C 167.5,242.167 167.167,242.5 166.5,242.5C 165.178,242.67 164.011,242.337 163,241.5C 162.59,242.901 162.09,244.234 161.5,245.5C 160.013,246.804 158.346,247.97 156.5,249C 147.134,251.286 139.134,249.119 132.5,242.5C 131.198,240.178 129.198,238.845 126.5,238.5C 126.027,237.094 125.027,236.427 123.5,236.5C 123.167,235.5 122.5,234.833 121.5,234.5C 123.306,231.662 124.306,231.995 124.5,235.5C 126.288,235.785 127.955,235.452 129.5,234.5C 128.266,232.602 128.599,230.935 130.5,229.5C 131.096,230.716 131.263,232.049 131,233.5C 144.239,232.267 157.239,232.267 170,233.5C 172.185,233.698 173.685,234.698 174.5,236.5 Z"/></g>
<g><path style="opacity:0.067" fill="#fcf8c1" d="M 174.5,236.5 C 174.833,236.5 175.167,236.5 175.5,236.5C 174.486,237.674 173.153,238.34 171.5,238.5C 171.973,237.094 172.973,236.427 174.5,236.5 Z"/></g>
<g><path style="opacity:0.329" fill="#fcf8ba" d="M 126.5,238.5 C 129.198,238.845 131.198,240.178 132.5,242.5C 130.147,241.66 128.147,240.326 126.5,238.5 Z"/></g>
<g><path style="opacity:0.231" fill="#f3f6b5" d="M 170.5,239.5 C 170.027,240.906 169.027,241.573 167.5,241.5C 167.821,239.952 168.821,239.285 170.5,239.5 Z"/></g>
<g><path style="opacity:0.976" fill="#fbf293" d="M 166.5,242.5 C 165.101,243.89 163.434,244.89 161.5,245.5C 162.09,244.234 162.59,242.901 163,241.5C 164.011,242.337 165.178,242.67 166.5,242.5 Z"/></g>
</svg>
