<?xml version="1.0" encoding="UTF-8"?>
<!DOCTYPE svg PUBLIC "-//W3C//DTD SVG 1.1//EN" "http://www.w3.org/Graphics/SVG/1.1/DTD/svg11.dtd">
<svg xmlns="http://www.w3.org/2000/svg" version="1.1" width="512px" height="512px" style="shape-rendering:geometricPrecision; text-rendering:geometricPrecision; image-rendering:optimizeQuality; fill-rule:evenodd; clip-rule:evenodd" xmlns:xlink="http://www.w3.org/1999/xlink">
<g><path style="opacity:0.999" fill="#fedf1b" d="M 63.5,-0.5 C 191.5,-0.5 319.5,-0.5 447.5,-0.5C 482.5,7.16667 503.833,28.5 511.5,63.5C 511.5,191.5 511.5,319.5 511.5,447.5C 503.833,482.5 482.5,503.833 447.5,511.5C 319.5,511.5 191.5,511.5 63.5,511.5C 28.5,503.833 7.16667,482.5 -0.5,447.5C -0.5,319.5 -0.5,191.5 -0.5,63.5C 7.16667,28.5 28.5,7.16667 63.5,-0.5 Z"/></g>
<g><path style="opacity:1" fill="#1f1f1e" d="M 233.5,70.5 C 256.483,67.9077 273.65,76.5744 285,96.5C 303.117,88.209 322.117,83.209 342,81.5C 352.532,81.4703 362.366,83.9703 371.5,89C 381.889,97.8326 385.723,108.999 383,122.5C 378.549,140.407 369.716,155.74 356.5,168.5C 364.315,177.464 369.482,187.797 372,199.5C 373.895,212.086 374.895,224.753 375,237.5C 384.596,239.811 393.763,243.311 402.5,248C 417.621,258.856 420.621,272.522 411.5,289C 413.471,294.579 415.637,300.079 418,305.5C 423.242,307.074 426.909,310.407 429,315.5C 431.787,330.782 429.787,345.448 423,359.5C 399.155,409.857 359.322,437.024 303.5,441C 236.198,445.363 186.865,418.03 155.5,359C 136.499,357.252 120.999,349.085 109,334.5C 98.26,317.589 96.0933,299.756 102.5,281C 88.0078,273.028 80.6745,260.695 80.5,244C 83.3245,219.859 91.4912,197.693 105,177.5C 124.931,146.566 149.431,119.732 178.5,97C 195.1,84.3654 213.433,75.5321 233.5,70.5 Z"/></g>
<g><path style="opacity:1" fill="#fdde1b" d="M 231.5,83.5 C 249.767,79.974 263.434,86.1406 272.5,102C 225.666,127.501 187.833,162.668 159,207.5C 151.444,220.998 144.944,234.998 139.5,249.5C 133.343,250.912 127.677,253.412 122.5,257C 117.659,261.01 112.992,265.177 108.5,269.5C 101.429,266.371 96.9291,261.038 95,253.5C 94.3333,246.5 94.3333,239.5 95,232.5C 97.2059,222.757 100.539,213.423 105,204.5C 128.74,160.092 161.574,123.926 203.5,96C 212.569,90.9597 221.903,86.793 231.5,83.5 Z"/></g>
<g><path style="opacity:1" fill="#f0d31c" d="M 288.5,133.5 C 291.518,133.335 294.518,133.502 297.5,134C 295.167,136.333 292.833,138.667 290.5,141C 303.423,141.803 315.423,145.47 326.5,152C 283.908,143.784 244.908,151.784 209.5,176C 223.977,159.689 240.477,145.855 259,134.5C 257.27,139.028 255.936,143.695 255,148.5C 265.333,141.452 276.499,136.452 288.5,133.5 Z"/></g>
<g><path style="opacity:1" fill="#fcdd1b" d="M 336.5,183.5 C 352.656,181.492 362.156,188.492 365,204.5C 364.923,218.183 365.089,231.85 365.5,245.5C 372.838,249.09 380.504,251.923 388.5,254C 395.244,256.612 400.744,260.778 405,266.5C 406.225,272.268 405.225,277.601 402,282.5C 387.275,297.615 369.442,307.115 348.5,311C 328.577,314.886 308.577,315.386 288.5,312.5C 274.795,315.743 269.295,324.41 272,338.5C 273.858,345.698 278.025,351.198 284.5,355C 298.381,362.028 313.047,364.361 328.5,362C 352.359,359.716 374.026,351.716 393.5,338C 397.171,335.095 399.671,331.595 401,327.5C 371.245,347.814 338.412,356.314 302.5,353C 292.279,351.421 284.946,346.088 280.5,337C 280.833,336.5 281.167,336 281.5,335.5C 291.024,339.754 301.024,341.421 311.5,340.5C 316.5,340.333 321.5,340.167 326.5,340C 331.177,339.386 335.511,337.886 339.5,335.5C 328.548,335.449 317.548,335.282 306.5,335C 297.976,333.786 289.643,331.786 281.5,329C 280.124,326.46 280.79,324.46 283.5,323C 286.039,321.953 288.705,321.453 291.5,321.5C 332.23,327.691 369.397,319.024 403,295.5C 405.861,302.251 408.028,309.251 409.5,316.5C 417.66,316.61 420.993,320.776 419.5,329C 418.594,340.052 415.094,350.218 409,359.5C 384.107,394.02 350.274,409.187 307.5,405C 262.414,395.91 241.581,368.41 245,322.5C 246.405,316.618 248.405,310.951 251,305.5C 255.266,298.621 259.766,291.955 264.5,285.5C 264.281,284.062 263.781,282.729 263,281.5C 253.999,272.169 246.999,261.502 242,249.5C 237.211,227.254 244.711,210.754 264.5,200C 268.995,198.21 273.661,197.376 278.5,197.5C 290.693,200.533 302.693,200.033 314.5,196C 322.058,192.059 329.392,187.892 336.5,183.5 Z"/></g>
<g><path style="opacity:1" fill="#201f1e" d="M 341.5,216.5 C 347.42,215.914 350.92,218.581 352,224.5C 352.5,231.492 352.666,238.492 352.5,245.5C 349.813,245.664 347.146,245.497 344.5,245C 340.054,237.051 338.221,228.551 339,219.5C 339.698,218.309 340.531,217.309 341.5,216.5 Z"/></g>
<g><path style="opacity:1" fill="#22211e" d="M 277.5,241.5 C 286.32,240.554 294.653,242.054 302.5,246C 306.804,249.654 307.471,253.821 304.5,258.5C 299.865,255.034 294.865,252.2 289.5,250C 286.167,249.333 282.833,249.333 279.5,250C 275.297,251.569 270.964,252.402 266.5,252.5C 266.608,250.217 267.441,248.217 269,246.5C 271.682,244.415 274.516,242.748 277.5,241.5 Z"/></g>
<g><path style="opacity:1" fill="#24231e" d="M 348.5,253.5 C 351.238,252.965 353.072,253.965 354,256.5C 354.667,259.167 354.667,261.833 354,264.5C 352.003,268.082 349.67,268.082 347,264.5C 346.013,260.525 346.513,256.859 348.5,253.5 Z"/></g>
<g><path style="opacity:1" fill="#2b281e" d="M 292.5,258.5 C 295.85,258.335 299.183,258.502 302.5,259C 303.91,259.368 304.91,260.201 305.5,261.5C 298.096,262.087 290.763,263.087 283.5,264.5C 281.627,264.518 281.294,264.018 282.5,263C 285.893,261.38 289.226,259.88 292.5,258.5 Z"/></g>
<g><path style="opacity:1" fill="#24231e" d="M 326.5,262.5 C 330.516,261.9 334.016,262.9 337,265.5C 337.667,267.5 337.667,269.5 337,271.5C 328.291,274.099 324.791,271.099 326.5,262.5 Z"/></g>
<g><path style="opacity:1" fill="#fbdc1b" d="M 138.5,263.5 C 155.346,261.005 167.513,267.339 175,282.5C 183.229,300.061 183.563,317.727 176,335.5C 169.262,344.45 160.429,347.617 149.5,345C 125.762,338.921 113.429,323.588 112.5,299C 113.345,281.336 122.012,269.502 138.5,263.5 Z"/></g>
<g><path style="opacity:1" fill="#23221e" d="M 143.5,277.5 C 165.214,279.254 171.048,289.92 161,309.5C 160.333,312.167 160.333,314.833 161,317.5C 163.808,319.821 166.975,321.488 170.5,322.5C 161.727,327.945 156.727,325.612 155.5,315.5C 156.428,309.181 156.595,302.847 156,296.5C 152.266,289.55 146.432,286.717 138.5,288C 134.4,292.032 131.733,296.866 130.5,302.5C 129.914,302.291 129.414,301.957 129,301.5C 128.976,290.547 133.809,282.547 143.5,277.5 Z"/></g>
</svg>
