<?xml version="1.0" standalone="no"?>
<!DOCTYPE svg PUBLIC "-//W3C//DTD SVG 20010904//EN"
 "http://www.w3.org/TR/2001/REC-SVG-20010904/DTD/svg10.dtd">
<svg version="1.0" xmlns="http://www.w3.org/2000/svg"
 width="512.000000pt" height="512.000000pt" viewBox="0 0 512.000000 512.000000"
 preserveAspectRatio="xMidYMid meet">

<g transform="translate(0.000000,512.000000) scale(0.100000,-0.100000)"
fill="#000000" stroke="none">
<path d="M1440 4610 c-209 -13 -322 -40 -461 -112 -247 -127 -404 -358 -460
-678 -15 -89 -24 -2131 -10 -2360 5 -92 17 -202 26 -246 69 -332 314 -589 640
-673 157 -40 257 -42 1470 -39 1130 4 1162 5 1250 25 355 81 605 320 685 654
38 159 41 296 38 1464 -4 1237 -3 1207 -69 1389 -61 169 -181 320 -333 421
-120 79 -218 115 -396 146 -77 13 -2181 21 -2380 9z m611 -970 c246 -25 424
-112 534 -261 100 -136 138 -337 99 -527 -69 -340 -352 -512 -846 -512 l-118
0 -2 -297 -3 -298 -187 -3 -188 -2 0 950 0 950 218 3 c119 1 256 3 303 5 48 1
133 -3 190 -8z m1657 -460 c51 -10 100 -24 108 -31 11 -9 14 -45 14 -176 0
-153 -1 -165 -17 -158 -211 90 -461 109 -540 41 -35 -30 -37 -85 -4 -120 28
-30 111 -74 216 -116 131 -52 253 -119 310 -172 166 -151 161 -425 -9 -586
-110 -104 -244 -145 -471 -145 -160 0 -263 16 -365 56 l-55 22 -3 177 -2 178
68 -35 c100 -50 201 -75 327 -82 128 -6 185 5 227 47 72 72 20 126 -224 234
-96 42 -198 92 -225 111 -65 43 -119 106 -152 175 -23 49 -26 67 -26 160 1 86
5 116 24 163 43 109 155 204 296 252 108 37 331 39 503 5z"/>
<path d="M1731 3297 c-8 -11 -11 -97 -9 -313 l3 -299 150 0 c128 1 160 4 220
23 98 32 156 77 191 149 25 51 29 69 28 143 -1 98 -16 140 -71 201 -70 77
-127 95 -344 103 -127 6 -158 4 -168 -7z"/>
</g>
</svg>
