<?xml version="1.0" encoding="UTF-8"?>
<svg version="1.1" xmlns="http://www.w3.org/2000/svg" width="600" height="600">
<path d="M0 0 C1.07137207 0.18191895 2.14274414 0.36383789 3.24658203 0.55126953 C31.39970724 5.51164539 58.81656337 14.71399258 84.12060547 28.01757812 C85.9686078 28.98359025 87.82800816 29.92347131 89.69140625 30.859375 C109.50098406 40.94277054 127.27174105 54.46417341 144 69 C144.83015625 69.71671875 145.6603125 70.4334375 146.515625 71.171875 C157.94625386 81.23991234 168.60467204 92.00772399 178 104 C178.90304559 105.08210931 179.80949591 106.16138344 180.71875 107.23828125 C189.55819248 117.81227811 196.82670302 129.25155335 204 141 C204.40202637 141.64791504 204.80405273 142.29583008 205.21826172 142.96337891 C225.32933681 175.48045607 236.58841206 213.39504917 242 251 C242.17660156 252.15105225 242.35320313 253.30210449 242.53515625 254.48803711 C244.12612885 265.72783236 244.39809408 276.84586443 244.375 288.1875 C244.37478851 289.1502182 244.37457703 290.1129364 244.37435913 291.10482788 C244.33808229 307.72770209 243.14214661 323.64557212 240 340 C239.80744629 341.02802734 239.61489258 342.05605469 239.41650391 343.11523438 C230.24296069 391.09048961 209.49310654 434.91216843 179 473 C178.17757812 474.02996094 177.35515625 475.05992187 176.5078125 476.12109375 C163.50096464 491.99500352 148.36178777 507.82902151 131.65234375 519.80957031 C129.85285208 521.1060126 128.08235306 522.43684889 126.3125 523.7734375 C85.65339941 554.31609821 39.2173623 572.46332273 -11 580 C-12.21131592 580.18691406 -13.42263184 580.37382813 -14.6706543 580.56640625 C-25.68143124 582.11985718 -36.57738007 582.39821441 -47.6875 582.375 C-48.62687408 582.37478851 -49.56624817 582.37457703 -50.53408813 582.37435913 C-67.01733777 582.33752057 -82.77566017 581.05536134 -99 578 C-100.06186523 577.80744629 -101.12373047 577.61489258 -102.21777344 577.41650391 C-150.73812617 568.50049804 -195.94175965 547.36704987 -234 516 C-234.81766846 515.33677734 -234.81766846 515.33677734 -235.65185547 514.66015625 C-250.42446486 502.64353322 -264.41722846 489.13714134 -276 474 C-277.27047276 472.45803617 -278.54131472 470.91637648 -279.8125 469.375 C-292.01555507 454.05419832 -302.50698317 437.72740859 -310.99560547 420.08251953 C-311.99705909 418.0060977 -313.01535275 415.93855355 -314.03515625 413.87109375 C-327.74902762 385.78073367 -335.44340649 355.83376164 -340 325 C-340.24814499 323.48037836 -340.49676082 321.96083343 -340.74609375 320.44140625 C-351.4714426 249.13674324 -326.51197584 172.4517082 -284.68652344 115.20214844 C-279.79690359 108.59245004 -274.63788602 102.29577476 -269.0625 96.24609375 C-267.26084243 94.28406136 -265.53212157 92.28345251 -263.8125 90.25 C-255.05882741 80.2370984 -245.44218758 71.22011493 -235 63 C-233.27050463 61.5420565 -231.54134583 60.08371367 -229.8125 58.625 C-188.39892927 24.81079004 -137.4365336 5.74903729 -85 -2 C-83.48037836 -2.24814499 -81.96083343 -2.49676082 -80.44140625 -2.74609375 C-54.03031616 -6.71873934 -26.16570621 -4.46177168 0 0 Z " fill="#EAECED" transform="translate(349,11)"/>
<path d="M0 0 C7.22698629 6.69176554 7.22698629 6.69176554 8.50708008 9.25195312 C12.13310529 8.23213353 14.32805814 6.59590182 17.00708008 4.06445312 C29.22032557 -6.93434206 43.62237399 -11.05944764 59.63208008 -11.18554688 C60.63343994 -11.19577881 61.6347998 -11.20601074 62.66650391 -11.21655273 C81.21566276 -10.99875737 97.54249405 -2.67678172 110.99926758 9.66210938 C115.34391158 14.1488679 118.92718078 19.14151717 122.50708008 24.25195312 C123.15032227 24.07019531 123.79356445 23.8884375 124.45629883 23.70117188 C126.39325001 23.16236234 128.3337545 22.63625081 130.27661133 22.11914062 C132.3235768 21.56965292 134.36397528 20.9945367 136.39379883 20.38476562 C157.66911232 14.54448349 179.13956398 18.57089777 198.50708008 28.25195312 C199.43391602 28.71472656 200.36075195 29.1775 201.31567383 29.65429688 C218.8546402 39.33580631 234.73734505 58.09419214 240.50708008 77.25195312 C247.20149322 104.15022575 245.35688714 128.31239212 231.69458008 152.68945312 C225.46058814 162.24372338 217.93160976 170.79186641 208.50708008 177.25195312 C207.8599707 177.74824219 207.21286133 178.24453125 206.54614258 178.75585938 C193.38934293 188.40922003 176.20714689 193.69164439 160.00317383 193.07226562 C158.85067139 193.03496338 157.69816895 192.99766113 156.51074219 192.95922852 C154.21862077 192.86451539 151.92784816 192.72229206 149.64208984 192.52709961 C143.31992688 192.21940828 143.31992688 192.21940828 138.06494141 195.37963867 C136.03500985 197.92094655 134.26930057 200.52107744 132.50708008 203.25195312 C127.36497443 209.27468798 121.30772492 213.26502538 114.50708008 217.25195312 C113.87286133 217.65542969 113.23864258 218.05890625 112.58520508 218.47460938 C101.65112945 224.8366932 84.729816 226.12420684 72.69848633 223.38476562 C70.30944974 222.70360431 67.92997761 221.98719984 65.56567383 221.22460938 C62.88052066 220.37071009 60.27794581 219.74214352 57.50708008 219.25195312 C56.88833008 220.37730469 56.88833008 220.37730469 56.25708008 221.52539062 C44.79242047 241.84445253 30.24558815 252.98473452 8.12036133 260.00976562 C-10.81832904 264.70312345 -31.11058478 260.47049926 -47.79760742 251.00976562 C-60.00832783 243.04625232 -71.82835187 230.24565727 -76.49291992 216.25195312 C-77.26780762 216.24784424 -78.04269531 216.24373535 -78.84106445 216.23950195 C-107.52510817 215.97300088 -107.52510817 215.97300088 -118.49291992 210.25195312 C-119.52932617 209.73375 -120.56573242 209.21554687 -121.63354492 208.68164062 C-138.46407321 199.58977233 -149.39830755 185.205235 -155.49291992 167.25195312 C-160.3156828 149.428699 -157.99998439 130.6178026 -149.37963867 114.44335938 C-143.35783784 104.25741469 -135.32844999 95.80897317 -125.49291992 89.25195312 C-125.76104492 88.38570313 -126.02916992 87.51945312 -126.30541992 86.62695312 C-126.70940658 85.17085734 -127.10371297 83.7120689 -127.49291992 82.25195312 C-127.75717773 81.27871094 -128.02143555 80.30546875 -128.29370117 79.30273438 C-133.23682351 59.13198398 -131.28242782 37.29220515 -120.70776367 19.19726562 C-109.19755564 1.21113539 -92.69979245 -12.73848745 -71.76635742 -18.25976562 C-46.13392507 -23.76501312 -19.50810262 -17.58387876 0 0 Z " fill="#189BD6" transform="translate(260.492919921875,192.748046875)"/>
<path d="M0 0 C1.07137207 0.18191895 2.14274414 0.36383789 3.24658203 0.55126953 C31.39970724 5.51164539 58.81656337 14.71399258 84.12060547 28.01757812 C85.9686078 28.98359025 87.82800816 29.92347131 89.69140625 30.859375 C109.50098406 40.94277054 127.27174105 54.46417341 144 69 C144.83015625 69.71671875 145.6603125 70.4334375 146.515625 71.171875 C157.94625386 81.23991234 168.60467204 92.00772399 178 104 C178.90304559 105.08210931 179.80949591 106.16138344 180.71875 107.23828125 C189.55819248 117.81227811 196.82670302 129.25155335 204 141 C204.40202637 141.64791504 204.80405273 142.29583008 205.21826172 142.96337891 C225.32933681 175.48045607 236.58841206 213.39504917 242 251 C242.17660156 252.15105225 242.35320313 253.30210449 242.53515625 254.48803711 C244.12612885 265.72783236 244.39809408 276.84586443 244.375 288.1875 C244.37478851 289.1502182 244.37457703 290.1129364 244.37435913 291.10482788 C244.33808229 307.72770209 243.14214661 323.64557212 240 340 C239.80744629 341.02802734 239.61489258 342.05605469 239.41650391 343.11523438 C230.24296069 391.09048961 209.49310654 434.91216843 179 473 C178.17757812 474.02996094 177.35515625 475.05992187 176.5078125 476.12109375 C163.50096464 491.99500352 148.36178777 507.82902151 131.65234375 519.80957031 C129.85285208 521.1060126 128.08235306 522.43684889 126.3125 523.7734375 C85.65339941 554.31609821 39.2173623 572.46332273 -11 580 C-12.21131592 580.18691406 -13.42263184 580.37382813 -14.6706543 580.56640625 C-25.68143124 582.11985718 -36.57738007 582.39821441 -47.6875 582.375 C-48.62687408 582.37478851 -49.56624817 582.37457703 -50.53408813 582.37435913 C-67.01733777 582.33752057 -82.77566017 581.05536134 -99 578 C-100.06186523 577.80744629 -101.12373047 577.61489258 -102.21777344 577.41650391 C-150.73812617 568.50049804 -195.94175965 547.36704987 -234 516 C-234.81766846 515.33677734 -234.81766846 515.33677734 -235.65185547 514.66015625 C-250.42446486 502.64353322 -264.41722846 489.13714134 -276 474 C-277.27047276 472.45803617 -278.54131472 470.91637648 -279.8125 469.375 C-292.01555507 454.05419832 -302.50698317 437.72740859 -310.99560547 420.08251953 C-311.99705909 418.0060977 -313.01535275 415.93855355 -314.03515625 413.87109375 C-327.74902762 385.78073367 -335.44340649 355.83376164 -340 325 C-340.24814499 323.48037836 -340.49676082 321.96083343 -340.74609375 320.44140625 C-351.4714426 249.13674324 -326.51197584 172.4517082 -284.68652344 115.20214844 C-279.79690359 108.59245004 -274.63788602 102.29577476 -269.0625 96.24609375 C-267.26084243 94.28406136 -265.53212157 92.28345251 -263.8125 90.25 C-255.05882741 80.2370984 -245.44218758 71.22011493 -235 63 C-233.27050463 61.5420565 -231.54134583 60.08371367 -229.8125 58.625 C-188.39892927 24.81079004 -137.4365336 5.74903729 -85 -2 C-83.48037836 -2.24814499 -81.96083343 -2.49676082 -80.44140625 -2.74609375 C-54.03031616 -6.71873934 -26.16570621 -4.46177168 0 0 Z M-101 42 C-102.06573242 42.24669434 -103.13146484 42.49338867 -104.22949219 42.74755859 C-159.51696168 55.84957893 -210.96459346 86.78062703 -246 132 C-246.79792969 132.99257812 -247.59585938 133.98515625 -248.41796875 135.0078125 C-257.57143451 146.48707126 -265.26837696 158.95968311 -272 172 C-272.30647461 172.58716797 -272.61294922 173.17433594 -272.92871094 173.77929688 C-277.89006183 183.31477128 -282.21233731 192.94273041 -286 203 C-286.44214844 204.13953125 -286.88429688 205.2790625 -287.33984375 206.453125 C-290.46340566 214.7699646 -292.64262241 223.14685373 -294.52104187 231.81144714 C-294.83065921 233.22621366 -295.14610088 234.63972364 -295.46855164 236.05162048 C-299.11659589 252.07009106 -300.49128426 267.70515316 -300.39111328 284.12548828 C-300.37508329 287.23384955 -300.39103868 290.34089732 -300.41015625 293.44921875 C-300.43052691 311.99784529 -298.89637136 330.59895394 -294.3125 348.625 C-293.93121948 350.16063599 -293.93121948 350.16063599 -293.54223633 351.72729492 C-284.24704891 387.82022109 -266.55106842 422.88207824 -242 451 C-241.37867188 451.73089844 -240.75734375 452.46179688 -240.1171875 453.21484375 C-234.85003287 459.25657994 -229.20136354 464.93253718 -223.5625 470.625 C-222.77568848 471.42486328 -221.98887695 472.22472656 -221.17822266 473.04882812 C-215.76064355 478.47424743 -210.09256899 483.34874332 -204 488 C-203.27353271 488.55478027 -202.54706543 489.10956055 -201.79858398 489.68115234 C-177.34212252 508.09337001 -149.01296313 524.19332194 -118.99609375 531.24609375 C-116.18674283 531.95300995 -113.67811786 532.9116129 -111 534 C-103.2711934 536.22319587 -95.38341474 537.47922747 -87.4375 538.625 C-86.58800781 538.7480249 -85.73851562 538.8710498 -84.86328125 538.99780273 C-72.76175409 540.67355893 -60.70547843 541.2718545 -48.5 541.3125 C-47.74042999 541.31511841 -46.98085999 541.31773682 -46.19827271 541.32043457 C-31.18617935 541.32592424 -16.77658493 539.73723258 -2 537 C-1.18966309 536.86110352 -0.37932617 536.72220703 0.45556641 536.57910156 C32.0908274 531.11059152 64.73541096 517.3713389 91 499 C91.62471191 498.56623047 92.24942383 498.13246094 92.89306641 497.68554688 C102.02159748 491.29488548 110.65926489 484.38460206 119 477 C119.54398437 476.51917969 120.08796875 476.03835938 120.6484375 475.54296875 C149.81852851 449.59117416 172.34502349 416.43970056 186.24414062 379.95898438 C186.9934392 378.01700384 187.78105796 376.09467623 188.578125 374.171875 C192.8164012 363.72258322 195.259878 353.02244816 197.52270508 341.99267578 C198 340 198 340 199 338 C203.65943391 310.31553212 205.14109494 281.83420888 201 254 C200.89284668 253.23945313 200.78569336 252.47890625 200.67529297 251.6953125 C199.37545787 242.58322249 197.58957089 233.86305099 194.90625 225.05078125 C194.12308479 222.41435008 193.48786564 219.81720523 192.9375 217.125 C192.03733589 212.90884676 190.60513838 208.99311065 189 205 C188.62359375 204.00097656 188.2471875 203.00195312 187.859375 201.97265625 C178.89929379 178.67129563 167.54523674 156.59676794 152 137 C151.33355469 136.14148438 150.66710937 135.28296875 149.98046875 134.3984375 C136.16920239 116.80065038 120.21109281 100.06053623 102 87 C100.93652344 86.2265625 99.87304688 85.453125 98.77734375 84.65625 C90.78126662 78.98224144 82.49855539 73.87482745 74 69 C73.37206543 68.63406738 72.74413086 68.26813477 72.09716797 67.89111328 C53.11400011 56.91972384 32.10014334 49.71765234 11 44 C9.91847656 43.69578125 8.83695312 43.3915625 7.72265625 43.078125 C-11.19018962 38.20701095 -30.94875604 37.4421552 -50.375 37.5625 C-51.44195099 37.56587372 -52.50890198 37.56924744 -53.60818481 37.57272339 C-69.72430465 37.64633772 -85.25597571 38.2613904 -101 42 Z " fill="#01A0DC" transform="translate(349,11)"/>
<path d="M0 0 C5.15174992 3.59424413 8.33365357 7.72115261 9.6875 13.875 C10.35457748 20.54577478 9.18245767 26.08647637 5.6875 31.875 C1.65718946 36.20564618 -2.64711912 37.20042485 -8.4375 37.4375 C-14.90975113 37.14404781 -18.13760862 35.17071868 -22.5625 30.5 C-26.23954296 24.98443556 -27.19466788 19.38098812 -26.3125 12.875 C-24.44639617 6.95860264 -21.33007347 3.39797712 -16.3125 -0.125 C-10.91330143 -1.92473286 -5.37692735 -1.82612627 0 0 Z " fill="#F2F9FC" transform="translate(364.3125,287.125)"/>
<path d="M0 0 C3.45856722 2.39439269 5.09268066 3.65304198 6.4375 7.6875 C6.52065752 9.75248892 6.54485878 11.8200789 6.53515625 13.88671875 C6.53193359 15.09521484 6.52871094 16.30371094 6.52539062 17.54882812 C6.51282227 19.4427832 6.51282227 19.4427832 6.5 21.375 C6.49548828 22.64923828 6.49097656 23.92347656 6.48632812 25.23632812 C6.47452873 28.38676564 6.45806597 31.53710949 6.4375 34.6875 C-1.6062459 36.91638155 -12.28603648 39.31766377 -20.1171875 35.4140625 C-23.91117542 32.18681136 -25.46063707 29.93022772 -25.875 24.875 C-25.81914705 21.79191696 -25.55300882 20.67041588 -24 17.875 C-17.4158417 11.96613998 -11.03730784 12.3117696 -2.5625 12.6875 C-3.68104586 8.96135847 -3.68104586 8.96135847 -6.5625 6.6875 C-11.71695016 6.51277288 -16.48190468 6.84073411 -21.5625 7.6875 C-23.5625 4.6875 -23.5625 4.6875 -23.5625 1.6875 C-15.91672799 -1.84131785 -8.05411592 -2.96730587 0 0 Z " fill="#F2F8FC" transform="translate(218.5625,287.3125)"/>
<path d="M0 0 C4.1511155 2.4906693 6.13750214 5.32396385 7.875 9.8125 C8.24375422 12.85472229 8.24043847 15.81588053 8.125 18.875 C7.125 19.875 7.125 19.875 4.90014648 19.98852539 C3.94180908 19.98328857 2.98347168 19.97805176 1.99609375 19.97265625 C0.44438477 19.96782227 0.44438477 19.96782227 -1.13867188 19.96289062 C-2.22728516 19.95451172 -3.31589844 19.94613281 -4.4375 19.9375 C-6.0762207 19.93073242 -6.0762207 19.93073242 -7.74804688 19.92382812 C-10.45708495 19.91199826 -13.16601599 19.89551543 -15.875 19.875 C-14.77713575 25.28287385 -14.77713575 25.28287385 -10.875 28.875 C-8.10844676 29.01745897 -5.44846694 29.06269445 -2.6875 29 C-1.56311523 28.98646484 -1.56311523 28.98646484 -0.41601562 28.97265625 C1.43112654 28.94912578 3.27810412 28.91325561 5.125 28.875 C5.455 30.855 5.785 32.835 6.125 34.875 C-0.98443597 37.56534887 -9.10249483 38.51463368 -16.421875 36 C-20.95069117 33.41210504 -24.45316418 29.99185359 -25.875 24.875 C-26.82160102 17.97477677 -27.0172818 11.74489258 -23.25 5.6875 C-17.32817158 -1.72167137 -8.83196052 -3.19090187 0 0 Z " fill="#F2F8FC" transform="translate(270.875,287.125)"/>
<path d="M0 0 C2.96916571 2.75190969 4.81973745 4.68838691 6.5625 8.375 C6.5625 12.005 6.5625 15.635 6.5625 19.375 C-1.3575 19.375 -9.2775 19.375 -17.4375 19.375 C-15.14933213 25.91076165 -15.14933213 25.91076165 -12.4375 28.375 C-9.00442243 28.46008705 -5.63093437 28.36779023 -2.203125 28.20898438 C-0.0625 28.15234375 -0.0625 28.15234375 3.5625 28.375 C5.5625 31.375 5.5625 31.375 5.5625 34.375 C-1.31457777 36.93391266 -9.67850477 38.02359391 -16.7265625 35.58203125 C-21.91080226 32.70312364 -24.53603266 29.90582408 -26.4375 24.375 C-27.17621182 17.00960862 -26.73721362 9.98883569 -22.6875 3.625 C-16.46241032 -2.60008968 -7.91508911 -3.74167849 0 0 Z " fill="#F4F9FC" transform="translate(458.4375,287.625)"/>
<path d="M0 0 C0.93423645 3.01031744 1.04449911 3.86650268 0 7 C-1.27875 7.12375 -2.5575 7.2475 -3.875 7.375 C-7.34790936 7.69042399 -7.34790936 7.69042399 -10 10 C-10.39764263 11.98821313 -10.73775349 13.98944339 -11 16 C-8.69 16 -6.38 16 -4 16 C-3.957279 17.66611905 -3.95936168 19.33382885 -4 21 C-5.93270582 22.93270582 -9.38641388 22.62663055 -12 23 C-13.85557444 24.85557444 -13.70066996 27.88036745 -14.0859375 30.37890625 C-14.29663528 31.70641828 -14.50758113 33.03389095 -14.71875 34.36132812 C-15.04661933 36.45173903 -15.37193145 38.54247183 -15.69238281 40.6340332 C-18.79870948 60.79870948 -18.79870948 60.79870948 -25 67 C-29.39233285 69.63539971 -34.04027933 69.19449885 -39 69 C-40.125 64.25 -40.125 64.25 -39 62 C-36.35139573 61.40644386 -33.70802678 61.25790731 -31 61 C-27.78650131 53.61459072 -26.6364378 46.0390667 -25.375 38.125 C-24.94962664 35.50186425 -24.51848309 32.87978639 -24.0859375 30.2578125 C-23.9007959 29.1042627 -23.7156543 27.95071289 -23.52490234 26.76220703 C-23 24 -23 24 -22 22 C-23.65 22 -25.3 22 -27 22 C-27 20.02 -27 18.04 -27 16 C-25.02 16 -23.04 16 -21 16 C-20.91363281 15.40832031 -20.82726562 14.81664062 -20.73828125 14.20703125 C-19.75502764 8.6773573 -18.63122445 5.55419551 -14 2 C-9.55618306 -0.59222655 -4.99101118 -0.19572593 0 0 Z " fill="#F4F9FB" transform="translate(343,271)"/>
<path d="M0 0 C0.9075 0.495 1.815 0.99 2.75 1.5 C2.42 3.15 2.09 4.8 1.75 6.5 C-2 7.625 -2 7.625 -4.25 6.5 C-5.95702735 6.43003986 -7.66668003 6.41559846 -9.375 6.4375 C-10.28507812 6.44652344 -11.19515625 6.45554687 -12.1328125 6.46484375 C-13.18082031 6.48224609 -13.18082031 6.48224609 -14.25 6.5 C-14.29050538 8.91636804 -14.29050538 8.91636804 -13.25 11.5 C-10.90122163 12.80354196 -8.8720736 13.73283199 -6.375 14.625 C1.84776731 17.69815546 1.84776731 17.69815546 3.75 20.5 C4.66788137 24.9157536 4.30283199 28.53766284 2.0625 32.4375 C-2.66196527 36.65121227 -7.35386444 36.88196978 -13.44921875 36.75 C-17.65474263 36.37461154 -20.51309048 35.50685881 -24.25 33.5 C-25.3125 30.875 -25.3125 30.875 -25.25 28.5 C-24.92 28.17 -24.59 27.84 -24.25 27.5 C-20.75265772 27.88859359 -17.59211739 28.38596087 -14.25 29.5 C-11.91700175 29.53954234 -9.58291811 29.54401732 -7.25 29.5 C-6.92 27.85 -6.59 26.2 -6.25 24.5 C-7.81119422 23.70576139 -9.37401964 22.91472877 -10.9375 22.125 C-11.80761719 21.68414062 -12.67773438 21.24328125 -13.57421875 20.7890625 C-16.22723095 19.46903702 -16.22723095 19.46903702 -18.96875 18.4375 C-21.90281989 17.23171785 -22.82749524 16.34500953 -24.25 13.5 C-25.08931263 6.9953271 -25.08931263 6.9953271 -23.23046875 3.68359375 C-17.800145 -3.1248182 -7.72134823 -3.3543562 0 0 Z " fill="#F3F9FC" transform="translate(307.25,287.5)"/>
<path d="M0 0 C0.928125 0.495 1.85625 0.99 2.8125 1.5 C2.4825 3.15 2.1525 4.8 1.8125 6.5 C-3.1375 6.5 -8.0875 6.5 -13.1875 6.5 C-13.5175 7.82 -13.8475 9.14 -14.1875 10.5 C-13.60742188 10.75394531 -13.02734375 11.00789063 -12.4296875 11.26953125 C1.26330656 17.30258309 1.26330656 17.30258309 3.8125 20.5 C4.50220566 23.89105283 4.40424251 27.09612334 3.8125 30.5 C1.28573961 33.84625024 -0.22683542 35.17977847 -4.1875 36.5 C-12.2986899 37.17685716 -18.23871472 36.86002214 -25.1875 32.5 C-24.8575 30.85 -24.5275 29.2 -24.1875 27.5 C-22.5625 26.8125 -22.5625 26.8125 -20.1875 26.5 C-19.259375 26.974375 -18.33125 27.44875 -17.375 27.9375 C-13.67046309 29.75344947 -11.26440834 29.89201042 -7.1875 29.5 C-4.97982747 27.74238043 -4.97982747 27.74238043 -5.1015625 25.5625 C-6.85675552 22.228896 -10.17623214 21.64554043 -13.5625 20.5 C-22.08278545 17.5851655 -22.08278545 17.5851655 -24.1875 13.5 C-25.14545155 6.90077821 -25.14545155 6.90077821 -22.9453125 3.68359375 C-16.8861654 -2.57149591 -7.98810031 -3.46314369 0 0 Z " fill="#F4F9FC" transform="translate(186.1875,287.5)"/>
<path d="M0 0 C1.53333984 0.00966797 1.53333984 0.00966797 3.09765625 0.01953125 C5.53822799 0.16388419 7.60589596 0.48857793 9.9375 1.1875 C9.6075 3.1675 9.2775 5.1475 8.9375 7.1875 C8.04546875 7.20167969 7.1534375 7.21585937 6.234375 7.23046875 C5.06390625 7.27816406 3.8934375 7.32585937 2.6875 7.375 C0.94726562 7.42720703 0.94726562 7.42720703 -0.828125 7.48046875 C-4.1807412 7.93114601 -4.1807412 7.93114601 -6.453125 10.36328125 C-8.28971597 13.58623094 -8.60012551 15.50019999 -8.5625 19.1875 C-8.5728125 20.198125 -8.583125 21.20875 -8.59375 22.25 C-7.91497819 26.00320883 -6.90086907 27.64131598 -4.0625 30.1875 C-0.79251925 30.7905807 -0.79251925 30.7905807 2.6875 30.5 C3.85796875 30.45488281 5.0284375 30.40976562 6.234375 30.36328125 C7.12640625 30.30527344 8.0184375 30.24726563 8.9375 30.1875 C9.5975 32.1675 10.2575 34.1475 10.9375 36.1875 C4.75667096 39.01237616 -1.90649074 39.30874967 -8.48046875 37.53515625 C-13.47382792 35.35231819 -15.99106173 32.2644452 -18.0625 27.1875 C-18.66093784 24.35291985 -18.77750431 21.6418358 -18.75 18.75 C-18.74637451 18.00226318 -18.74274902 17.25452637 -18.73901367 16.48413086 C-18.51126011 10.86641418 -17.2309434 7.50328791 -13.08203125 3.53515625 C-8.7512179 0.64515508 -5.17551361 -0.07197301 0 0 Z " fill="#F2F8FB" transform="translate(420.0625,285.8125)"/>
<path d="M0 0 C6.15234375 -0.09765625 6.15234375 -0.09765625 8 0 C9 1 9 1 9.12025452 3.01844788 C9.1169236 4.3474839 9.1169236 4.3474839 9.11352539 5.70336914 C9.11344986 6.70433121 9.11337433 7.70529327 9.11329651 8.73658752 C9.10813522 9.8251152 9.10297394 10.91364288 9.09765625 12.03515625 C9.0962413 13.14354355 9.09482635 14.25193085 9.09336853 15.39390564 C9.08775033 18.95013069 9.07519475 22.50629383 9.0625 26.0625 C9.05748734 28.46679597 9.05292403 30.87109292 9.04882812 33.27539062 C9.03777499 39.18361504 9.02101917 45.0918031 9 51 C2.84765625 51.09765625 2.84765625 51.09765625 1 51 C0 50 0 50 -0.12025452 47.98155212 C-0.11803391 47.09552811 -0.11581329 46.20950409 -0.11352539 45.29663086 C-0.11344986 44.29566879 -0.11337433 43.29470673 -0.11329651 42.26341248 C-0.10813522 41.1748848 -0.10297394 40.08635712 -0.09765625 38.96484375 C-0.0962413 37.85645645 -0.09482635 36.74806915 -0.09336853 35.60609436 C-0.08775033 32.04986931 -0.07519475 28.49370617 -0.0625 24.9375 C-0.05748734 22.53320403 -0.05292403 20.12890708 -0.04882812 17.72460938 C-0.03777499 11.81638496 -0.02101917 5.9081969 0 0 Z " fill="#F9FAFC" transform="translate(231,272)"/>
<path d="M0 0 C0.91644287 0.00523682 1.83288574 0.01047363 2.77709961 0.01586914 C3.76645508 0.0190918 4.75581055 0.02231445 5.77514648 0.02563477 C6.81606445 0.03401367 7.85698242 0.04239258 8.92944336 0.05102539 C10.49662109 0.05779297 10.49662109 0.05779297 12.09545898 0.06469727 C14.68600996 0.07652627 17.27644895 0.0930085 19.86694336 0.11352539 C18.99194336 5.98852539 18.99194336 5.98852539 17.86694336 7.11352539 C15.8704066 7.21013201 13.87321697 7.30343497 11.87475586 7.34399414 C9.62731815 7.99750536 9.62731815 7.99750536 8.15209961 10.45336914 C6.38821497 15.47695548 6.29888728 20.19886622 6.17944336 25.48852539 C6.1452832 26.51075195 6.11112305 27.53297852 6.07592773 28.58618164 C5.99385748 31.09518654 5.9245746 33.60386004 5.86694336 36.11352539 C-0.28540039 36.21118164 -0.28540039 36.21118164 -2.13305664 36.11352539 C-3.86598644 34.38059559 -3.2612571 32.15138203 -3.27200317 29.84204102 C-3.26997894 29.10663086 -3.26795471 28.3712207 -3.26586914 27.61352539 C-3.26682587 26.86264648 -3.26778259 26.11176758 -3.26876831 25.33813477 C-3.26945002 23.74763912 -3.26759636 22.15714072 -3.26342773 20.56665039 C-3.25807931 18.12387884 -3.26337298 15.68129118 -3.26977539 13.23852539 C-3.26911461 11.69685832 -3.26783344 10.15519136 -3.26586914 8.61352539 C-3.26789337 7.87811523 -3.2699176 7.14270508 -3.27200317 6.38500977 C-3.24309495 0.17260377 -3.24309495 0.17260377 0 0 Z " fill="#F2F8FB" transform="translate(381.133056640625,286.886474609375)"/>
<path d="M0 0 C3.36326605 1.05990251 4.42312284 2.71187491 6.21875 5.69921875 C6.6796875 9.109375 6.6796875 9.109375 6.59375 12.76171875 C6.57441406 14.57349609 6.57441406 14.57349609 6.5546875 16.421875 C6.24152944 19.47698679 5.93964681 21.19872103 4.21875 23.69921875 C0.48619552 26.1875884 -1.36565935 26.24148427 -5.78125 25.69921875 C-9.88898976 21.59147899 -10.95932506 18.63751622 -11.09375 12.94921875 C-10.9945408 6.07071408 -10.9945408 6.07071408 -9.34375 2.94921875 C-6.11513539 0.11433763 -4.17871632 0.02146601 0 0 Z " fill="#199BD6" transform="translate(358.78125,292.30078125)"/>
<path d="M0 0 C1.49080078 0.02707031 1.49080078 0.02707031 3.01171875 0.0546875 C3.77097656 0.07789063 4.53023437 0.10109375 5.3125 0.125 C5.33937279 1.93742052 5.35883715 3.74995233 5.375 5.5625 C5.38660156 6.57183594 5.39820313 7.58117187 5.41015625 8.62109375 C5.3125 11.125 5.3125 11.125 4.3125 12.125 C2.16796875 12.328125 2.16796875 12.328125 -0.5 12.375 C-1.37269531 12.40078125 -2.24539062 12.4265625 -3.14453125 12.453125 C-6.12654377 12.06834919 -7.4646114 11.09399223 -9.6875 9.125 C-9.375 5.75 -9.375 5.75 -8.6875 2.125 C-5.26655758 -0.15562828 -4.00562778 -0.09425007 0 0 Z " fill="#1C9CD7" transform="translate(211.6875,305.875)"/>
<path d="M0 0 C3.67136134 0.07094418 4.33677751 0.17739678 7.1875 2.75 C8.625 5.4375 8.625 5.4375 8.625 8.4375 C3.015 8.4375 -2.595 8.4375 -8.375 8.4375 C-5.61535774 0.15857323 -5.61535774 0.15857323 0 0 Z " fill="#1899D6" transform="translate(449.375,292.5625)"/>
<path d="M0 0 C2.5 1.75 2.5 1.75 4 4 C4 5.32 4 6.64 4 8 C-1.28 8 -6.56 8 -12 8 C-11 3 -11 3 -9.9375 1.1875 C-6.78858766 -0.74247853 -3.5277243 -0.64592135 0 0 Z " fill="#179AD6" transform="translate(267,293)"/>
<path d="M0 0 C0.33 0.66 0.66 1.32 1 2 C0.67 2.66 0.34 3.32 0 4 C3.63 4 7.26 4 11 4 C11 4.66 11 5.32 11 6 C6.71 6 2.42 6 -2 6 C-1 1 -1 1 0 0 Z " fill="#0D95D4" transform="translate(257,295)"/>
<path d="M0 0 C6.75 0.75 6.75 0.75 9 3 C9 4.32 9 5.64 9 7 C6.03 6.67 3.06 6.34 0 6 C0 5.67 0 5.34 0 5 C2.31 5 4.62 5 7 5 C6.10664203 2.64214682 6.10664203 2.64214682 2.9375 1.875 C1.968125 1.58625 0.99875 1.2975 0 1 C0 0.67 0 0.34 0 0 Z " fill="#0F95D4" transform="translate(207,293)"/>
</svg>
