<?xml version="1.0" encoding="UTF-8"?>
<svg version="1.1" xmlns="http://www.w3.org/2000/svg" width="512" height="512">
<path d="M0 0 C15.51927144 11.36533601 25.718256 25.93493122 29.390625 45.03125 C29.69127643 47.02504366 29.87231184 48.98794412 30 51 C30.07927734 52.06734375 30.07927734 52.06734375 30.16015625 53.15625 C30.809106 70.08537384 25.35967364 87.36090919 14 100 C8.60335595 105.64029896 3.02674268 111.10018513 -2.58813477 116.5222168 C-4.53616045 118.52348339 -6.3562335 120.55131939 -8.17474365 122.66680908 C-11.84082061 126.86873034 -15.68637183 130.85425261 -19.6159668 134.80883789 C-20.70513901 135.91027634 -20.70513901 135.91027634 -21.8163147 137.03396606 C-24.1909583 139.43318322 -26.5695197 141.82845379 -28.94921875 144.22265625 C-29.76524881 145.04400999 -30.58127888 145.86536373 -31.42203712 146.71160698 C-35.72875168 151.04490992 -40.03903647 155.37462877 -44.35180664 159.7019043 C-47.92133339 163.28484909 -51.48342058 166.87495348 -55.03930664 170.47143555 C-59.34167717 174.82290705 -63.65599095 179.16217874 -67.97941017 183.49273491 C-69.62434937 185.1444094 -71.26501288 186.80035333 -72.90134239 188.46055794 C-75.18014394 190.77074388 -77.47395966 193.06490481 -79.7722168 195.35571289 C-80.44814377 196.0480452 -81.12407074 196.7403775 -81.82048035 197.45368958 C-82.44692444 198.07181519 -83.07336853 198.6899408 -83.71879578 199.32679749 C-84.25909266 199.87040452 -84.79938955 200.41401155 -85.35605907 200.97409153 C-87 202 -87 202 -89.11082172 201.74577999 C-91.31219547 200.8767564 -92.34281543 199.9265363 -93.91015625 198.1640625 C-94.68262695 197.30941406 -94.68262695 197.30941406 -95.47070312 196.4375 C-95.99599609 195.839375 -96.52128906 195.24125 -97.0625 194.625 C-98.11548977 193.4501661 -99.16886309 192.27567583 -100.22265625 191.1015625 C-100.68422119 190.57900879 -101.14578613 190.05645508 -101.62133789 189.51806641 C-103.03496842 187.96149572 -104.50197885 186.47513586 -106 185 C-104.72384358 182.22691795 -103.37631414 180.10018589 -101.28916931 177.87730408 C-100.74451051 177.29421006 -100.1998517 176.71111605 -99.63868809 176.11035252 C-99.04756701 175.48862124 -98.45644594 174.86688997 -97.84741211 174.22631836 C-97.22600059 173.56716651 -96.60458906 172.90801466 -95.96434689 172.22888851 C-89.59904159 165.51242772 -83.07386987 158.95814853 -76.51080513 152.43564034 C-74.3755347 150.31343783 -72.24367162 148.18786002 -70.11253357 146.06150818 C-65.59871929 141.55896046 -61.08091294 137.0604322 -56.5625 132.5625 C-51.29345801 127.31719936 -46.02614162 122.07018803 -40.76301384 116.81895256 C-38.6763153 114.73866954 -36.58660084 112.66145045 -34.49671936 110.58436584 C-26.14463448 102.28964289 -26.14463448 102.28964289 -18.30152893 93.51731873 C-16.15064351 91.00982262 -13.76144976 88.78328911 -11.375 86.5 C-2.37094018 77.63204095 2.0153202 68.90297539 2.4375 56.125 C2.17559257 45.64870297 -0.83487243 36.71629123 -8 29 C-8.84498047 28.07574219 -8.84498047 28.07574219 -9.70703125 27.1328125 C-17.13826811 19.84237802 -26.33152944 16.75164457 -36.625 16.4375 C-52.21712901 17.03102754 -62.66772301 25.19036585 -73.26416016 35.90771484 C-74.14180527 36.78331558 -75.01945038 37.65891632 -75.9236908 38.56105042 C-78.30721934 40.94210289 -80.6839179 43.32958685 -83.05757189 45.72045851 C-85.55687141 48.23492158 -88.06440131 50.74115294 -90.57089233 53.2484436 C-94.77691614 57.45814747 -98.97728789 61.67342124 -103.17382812 65.89257812 C-108.5409401 71.28855852 -113.91727419 76.67525077 -119.29660988 82.05904198 C-123.94655456 86.71298415 -128.59224236 91.37116917 -133.23725462 96.03003359 C-134.7184812 97.51533398 -136.2002753 99.00006638 -137.68214798 100.48472214 C-140.45610354 103.26453836 -143.22561608 106.04875595 -145.99462891 108.83349609 C-146.80623978 109.64622482 -147.61785065 110.45895355 -148.45405579 111.29631042 C-152.64770432 115.52137206 -156.69112966 119.82238812 -160.5705061 124.33858585 C-163.62584645 127.88962281 -166.9104647 131.21777007 -170.1875 134.5625 C-171.23454102 135.66561523 -171.23454102 135.66561523 -172.30273438 136.79101562 C-172.98013672 137.48001953 -173.65753906 138.16902344 -174.35546875 138.87890625 C-175.26268677 139.81585327 -175.26268677 139.81585327 -176.18823242 140.77172852 C-178 142 -178 142 -179.98461914 141.91992188 C-182.48608971 140.77812404 -183.96941764 139.37003193 -185.890625 137.40234375 C-186.59960938 136.68369141 -187.30859375 135.96503906 -188.0390625 135.22460938 C-188.76867187 134.46986328 -189.49828125 133.71511719 -190.25 132.9375 C-191.36761719 131.79958008 -191.36761719 131.79958008 -192.5078125 130.63867188 C-194.34546694 128.76567793 -196.17575724 126.88604389 -198 125 C-196.4461538 121.29650626 -194.18505617 118.92629218 -191.36723328 116.09307861 C-190.65563977 115.37363009 -190.65563977 115.37363009 -189.92967063 114.63964725 C-188.34026403 113.03525105 -186.7438005 111.43807216 -185.1472168 109.84082031 C-184.00507394 108.69105471 -182.86333483 107.5408879 -181.7219696 106.39035034 C-178.61887982 103.26530637 -175.50923361 100.14686793 -172.39768958 97.03024387 C-170.45043592 95.07934445 -168.50448656 93.12715353 -166.5589695 91.1745224 C-159.76078032 84.35182509 -152.9568756 77.53488141 -146.14819336 70.72265625 C-139.82102838 64.39186609 -133.50708226 58.04810104 -127.19912213 51.69818044 C-121.77091636 46.23514828 -116.33299737 40.7819096 -110.88769847 35.33591533 C-107.64130275 32.08873029 -104.39892487 28.83777535 -101.16647911 25.5766983 C-98.1184479 22.50227821 -95.05838791 19.44033652 -91.98918343 16.38705826 C-90.87276589 15.2724394 -89.76049881 14.153643 -88.65305328 13.03010941 C-65.29966715 -10.64133309 -29.28630781 -19.65494765 0 0 Z " fill="#000000" transform="translate(406,200)"/>
<path d="M0 0 C1.11878451 0.95353683 2.23680002 1.90797598 3.35449219 2.86279297 C4.28850861 3.65990189 4.28850861 3.65990189 5.24139404 4.47311401 C7.32495865 6.28214098 9.30298861 8.17007393 11.25 10.125 C11.89453125 10.76695313 12.5390625 11.40890625 13.203125 12.0703125 C14.96008498 13.95713474 16.49461228 15.90918372 18 18 C16.65844369 20.98932164 15.18247123 23.05967051 12.85473633 25.35644531 C12.21679642 25.99100647 11.57885651 26.62556763 10.92158508 27.27935791 C10.23203232 27.95545105 9.54247955 28.63154419 8.83203125 29.328125 C8.11899338 30.0359613 7.40595551 30.74379761 6.67131042 31.4730835 C4.38973806 33.73685772 2.10161658 35.99385671 -0.1875 38.25 C-2.45793875 40.49266506 -4.72684929 42.73682159 -6.99275208 44.98406982 C-8.40129031 46.38052401 -9.81249126 47.77429967 -11.22685242 49.16485596 C-14.33024235 52.23724092 -17.32561401 55.33333999 -20.15332031 58.66210938 C-24.9470393 64.2177147 -30.24624734 69.27356862 -35.48327827 74.40561676 C-38.76334452 77.62404903 -42.02758213 80.85850165 -45.29492188 84.08984375 C-49.42997529 88.17709692 -53.56938807 92.25965323 -57.72436523 96.32666016 C-61.10437351 99.63593099 -64.46911537 102.96008349 -67.82456779 106.29424286 C-69.09524694 107.55144929 -70.37128646 108.80326449 -71.65301704 110.04920197 C-82.40288172 120.50690615 -90.72113278 131.20696632 -91.0625 146.8671875 C-90.58038776 158.46801334 -86.37352325 167.57290743 -78.32421875 175.875 C-75.09764038 178.82501451 -71.94102982 181.11014944 -68 183 C-67.02353516 183.47566406 -67.02353516 183.47566406 -66.02734375 183.9609375 C-56.4216664 187.87502659 -45.2892791 187.1414048 -35.7578125 183.4609375 C-27.61114282 179.14527962 -21.19148002 173.62158815 -14.73583984 167.09228516 C-13.85819473 166.21668442 -12.98054962 165.34108368 -12.0763092 164.43894958 C-9.69278066 162.05789711 -7.3160821 159.67041315 -4.94242811 157.27954149 C-2.44312859 154.76507842 0.06440131 152.25884706 2.57089233 149.7515564 C6.77691614 145.54185253 10.97728789 141.32657876 15.17382812 137.10742188 C20.5409401 131.71144148 25.91727419 126.32474923 31.29660988 120.94095802 C35.94655456 116.28701585 40.59224236 111.62883083 45.23725462 106.96996641 C46.7184812 105.48466602 48.2002753 103.99993362 49.68214798 102.51527786 C52.45610354 99.73546164 55.22561608 96.95124405 57.99462891 94.16650391 C59.21204521 92.94741081 59.21204521 92.94741081 60.45405579 91.70368958 C64.64770432 87.47862794 68.69112966 83.17761188 72.5705061 78.66141415 C75.62584645 75.11037719 78.9104647 71.78222993 82.1875 68.4375 C83.23454102 67.33438477 83.23454102 67.33438477 84.30273438 66.20898438 C84.98013672 65.51998047 85.65753906 64.83097656 86.35546875 64.12109375 C86.96028076 63.4964624 87.56509277 62.87183105 88.18823242 62.22827148 C90 61 90 61 91.98461914 61.08007812 C94.48608971 62.22187596 95.96941764 63.62996807 97.890625 65.59765625 C98.59960938 66.31630859 99.30859375 67.03496094 100.0390625 67.77539062 C101.13347656 68.90750977 101.13347656 68.90750977 102.25 70.0625 C102.99507812 70.82111328 103.74015625 71.57972656 104.5078125 72.36132812 C106.34546694 74.23432207 108.17575724 76.11395611 110 78 C108.44518754 81.70926794 106.1775746 84.07876893 103.35377502 86.91365051 C102.87796822 87.39398843 102.40216142 87.87432635 101.91193622 88.36921996 C100.31785545 89.97595065 98.71672137 91.575458 97.11547852 93.17504883 C95.97008338 94.32642919 94.8250994 95.4782187 93.68049622 96.63038635 C90.56916724 99.75939182 87.45136736 102.88187154 84.33182645 106.00268769 C82.3804576 107.95547877 80.43052017 109.90968737 78.48109245 111.86441612 C71.67190698 118.69211352 64.8575641 125.5146144 58.03833008 132.33227539 C51.69681183 138.67259477 45.36650315 145.02395284 39.04142433 151.38066846 C33.60130141 156.84702281 28.15341331 162.30555645 22.69952148 167.75817317 C19.44667678 171.01050988 16.19695782 174.26582076 12.955019 177.52903175 C9.89987494 180.60367166 6.83509697 183.66838342 3.76296806 186.72604942 C2.64336589 187.8435758 1.52709927 188.96445667 0.41464233 190.08909607 C-8.04660902 198.63689353 -16.78529663 206.02944625 -28.375 209.875 C-29.51710938 210.26429688 -30.65921875 210.65359375 -31.8359375 211.0546875 C-48.60426158 216.06448309 -67.43451983 213.82873558 -82.84814453 205.96386719 C-98.66637488 197.39327836 -109.19247947 183.78860284 -115.06640625 166.94140625 C-116.58155802 161.66399358 -117.55892216 156.46936516 -118 151 C-118.05285156 150.36320313 -118.10570313 149.72640625 -118.16015625 149.0703125 C-118.99054288 129.93531623 -110.92500177 112.38361486 -98.56748772 98.20999718 C-95.9929569 95.50744345 -93.36697946 92.87093307 -90.70678711 90.25268555 C-89.70953722 89.25656816 -88.7131756 88.25956084 -87.71762085 87.26174927 C-85.05149213 84.59448814 -82.37334952 81.93961193 -79.69261622 79.28704047 C-76.87867206 76.49835979 -74.07629806 73.69809738 -71.27259827 70.89912415 C-65.97914168 65.61802487 -60.67558696 60.34719215 -55.36818653 55.08011037 C-49.31898325 49.07585232 -43.28134007 43.06002548 -37.24456775 37.04327333 C-24.84239252 24.68273799 -12.42601443 12.33656872 0 0 Z " fill="#000000" transform="translate(194,109)"/>
<path d="M0 0 C3.55077004 2.8003236 6.79597656 5.81229587 10 9 C10.79019531 9.77601563 11.58039063 10.55203125 12.39453125 11.3515625 C14.27900945 13.21953914 16.14723004 15.10065203 18 17 C12.52509066 23.510703 6.76776422 29.74987827 1 36 C-3.35574299 35.54627677 -5.16265798 32.94117625 -8 29.8125 C-15.1730342 22.27752371 -24.43599666 16.82889509 -35 16 C-47.04019705 15.88533146 -56.98931302 19.49923842 -65.91429138 27.66705322 C-66.94329648 28.68733119 -67.96696398 29.71301211 -68.98608398 30.74316406 C-69.55117676 31.30635849 -70.11626953 31.86955292 -70.69848633 32.44981384 C-72.55260069 34.30024463 -74.39944866 36.15774256 -76.24609375 38.015625 C-77.5431779 39.31390297 -78.84063381 40.6118096 -80.13844299 41.90936279 C-82.85395186 44.62643264 -85.56607942 47.34681753 -88.27563477 50.06982422 C-91.73130784 53.54244383 -95.19348339 57.00848802 -98.65801907 60.47226334 C-101.33763041 63.15214807 -104.01461617 65.83464276 -106.69075203 68.51799774 C-107.96547685 69.79588275 -109.24078884 71.07318235 -110.51672173 72.34986115 C-116.24379143 78.08394485 -121.91733074 83.78962094 -127.18058777 89.95721436 C-131.51232488 94.82076877 -136.22459636 99.3447713 -140.83984375 103.9375 C-141.97349143 105.06927864 -143.10691559 106.2012812 -144.24012756 107.33349609 C-147.19863851 110.28822011 -150.16014181 113.23992653 -153.12231445 116.190979 C-156.15434725 119.21271471 -159.18349067 122.23734394 -162.21289062 125.26171875 C-168.13912967 131.17728805 -174.06853842 137.08966729 -180 143 C-181.10280247 142.06542605 -182.20406028 141.12902924 -183.3046875 140.19189453 C-183.91812012 139.67063995 -184.53155273 139.14938538 -185.16357422 138.61233521 C-187.93635154 136.17790712 -190.48380898 133.57042655 -193 130.875 C-193.50144531 130.36324219 -194.00289062 129.85148438 -194.51953125 129.32421875 C-198.01564381 125.57769593 -198.01564381 125.57769593 -197.9503479 123.16644287 C-196.56786159 120.01488374 -194.2828246 117.89923043 -191.85693359 115.53222656 C-191.0542807 114.73132599 -191.0542807 114.73132599 -190.2354126 113.91424561 C-188.46328627 112.14931004 -186.6808789 110.39513735 -184.8984375 108.640625 C-183.66037537 107.41070445 -182.42305074 106.18004111 -181.18643188 104.94866943 C-177.92397503 101.70334465 -174.65307089 98.46667471 -171.37988281 95.23217773 C-166.16049541 90.07189932 -160.95351057 84.89911765 -155.74739456 79.72545624 C-153.93620238 77.92810136 -152.12117309 76.13469631 -150.30551147 74.34185791 C-145.31506418 69.40201569 -140.41916267 64.44919164 -135.86105347 59.10174561 C-131.36946701 54.02925722 -126.51134945 49.27895258 -121.7421875 44.46875 C-121.15804203 43.87928085 -120.57389656 43.28981171 -119.97204971 42.68247986 C-116.88039633 39.5642642 -113.78518615 36.44962428 -110.6875 33.33740234 C-108.14947542 30.78605096 -105.61891646 28.22763601 -103.09472656 25.66259766 C-100.01807865 22.53620165 -96.92893396 19.42266584 -93.83084488 16.31752014 C-92.66498335 15.14502064 -91.50331669 13.96833199 -90.34630966 12.78709412 C-65.71232143 -12.33321101 -30.75577112 -20.10802024 0 0 Z " fill="#000000" transform="translate(332,123)"/>
<path d="M0 0 C3.15204981 1.39347376 5.26171773 3.02485079 7.671875 5.4765625 C8.33574219 6.146875 8.99960937 6.8171875 9.68359375 7.5078125 C10.70646484 8.55582031 10.70646484 8.55582031 11.75 9.625 C12.44738281 10.33140625 13.14476562 11.0378125 13.86328125 11.765625 C15.58012488 13.50598703 17.29211832 15.25084981 19 17 C17.20467891 20.87949716 14.89932945 23.26961294 11.8125 26.25 C8.73937664 29.22426764 5.81248947 32.18537973 3.04956055 35.44824219 C-1.44868667 40.61133011 -6.29864869 45.4113661 -11.15634155 50.23150635 C-12.84992862 51.9121424 -14.54020777 53.59604629 -16.22973633 55.28076172 C-20.42361018 59.46138011 -24.62295399 63.6364898 -28.82214355 67.81176758 C-32.38207831 71.35185717 -35.93987821 74.89406722 -39.4949646 78.43902588 C-41.14732532 80.08498106 -42.80270465 81.72785645 -44.45825195 83.37060547 C-49.2460123 88.1351864 -53.91827259 92.93871784 -58.31115723 98.07516479 C-61.65770668 101.88934827 -65.25817179 105.46274953 -68.828125 109.06640625 C-69.65777771 109.90413071 -70.48743042 110.74185516 -71.34222412 111.60496521 C-73.08881533 113.36530645 -74.8369069 115.1241602 -76.58642578 116.8815918 C-78.35948522 118.66618994 -80.12806469 120.45525049 -81.89208984 122.2487793 C-84.46504764 124.86465969 -87.05123552 127.46680151 -89.640625 130.06640625 C-90.41496887 130.85825821 -91.18931274 131.65011017 -91.98712158 132.46595764 C-105.5187663 145.94533336 -121.80867559 153.08021791 -140.8125 153.3125 C-162.05411446 153.18572354 -177.79892147 144.22225445 -192.625 129.5 C-194.08846898 128.00501015 -195.54873781 126.50684245 -197 125 C-191.44964797 118.21623641 -185.23557973 112.14477032 -179 106 C-177.5459375 107.2375 -177.5459375 107.2375 -176.0625 108.5 C-175.423125 109.04398437 -174.78375 109.58796875 -174.125 110.1484375 C-172.66531729 111.42029339 -171.22870051 112.71896131 -169.8125 114.0390625 C-165.19768439 118.31738114 -160.88638387 121.7000976 -155 124 C-154.08992188 124.35578125 -153.17984375 124.7115625 -152.2421875 125.078125 C-142.5056639 127.84658231 -130.8766388 126.94027219 -122 122 C-115.30490639 117.49940347 -109.72195585 111.9988091 -104.05859375 106.2890625 C-103.13208511 105.36209564 -102.20557648 104.43512878 -101.25099182 103.48007202 C-99.30068159 101.52820817 -97.35374177 99.57306709 -95.40942383 97.61523438 C-92.93805988 95.12689454 -90.46017796 92.64517468 -87.97993374 90.16568947 C-85.58668596 87.7721017 -83.19771203 85.37427234 -80.80859375 82.9765625 C-79.92924667 82.0961026 -79.0498996 81.2156427 -78.14390564 80.3085022 C-74.5272592 76.66420746 -70.96313857 73.02135373 -67.62524414 69.11865234 C-63.2908522 64.08285961 -58.55672721 59.44512782 -53.84365845 54.76849365 C-52.15007138 53.0878576 -50.45979223 51.40395371 -48.77026367 49.71923828 C-44.57638982 45.53861989 -40.37704601 41.3635102 -36.17785645 37.18823242 C-32.61792169 33.64814283 -29.06012179 30.10593278 -25.5050354 26.56097412 C-23.85267468 24.91501894 -22.19729535 23.27214355 -20.54174805 21.62939453 C-15.65878217 16.76991359 -10.86086577 11.88509314 -6.40283203 6.62548828 C-4.3861473 4.28871715 -2.21509718 2.14797302 0 0 Z " fill="#000000" transform="translate(359,247)"/>
</svg>
