<?xml version="1.0" encoding="UTF-8"?>
<svg version="1.1" xmlns="http://www.w3.org/2000/svg" width="512" height="512">
<path d="M0 0 C12.85230745 -0.75725543 25.03954399 1.28964171 35 10 C42.28631697 17.58038358 45.11562669 27.57182571 47.60961914 37.54541016 C47.83947006 38.44110214 48.06932098 39.33679413 48.30613708 40.2596283 C49.05526345 43.18458166 49.79509159 46.11180468 50.53515625 49.0390625 C51.05962331 51.09087097 51.58481771 53.14249365 52.11070251 55.19393921 C53.48785045 60.57173817 54.85773641 65.9513558 56.22528076 71.331604 C58.41585601 79.94873966 60.61330507 88.56410005 62.8187542 97.17744064 C63.58429075 100.17424138 64.3441229 103.1724482 65.10353088 106.17080688 C65.57537942 108.01839041 66.04744928 109.86591742 66.51977539 111.71337891 C66.72712311 112.53852493 66.93447083 113.36367096 67.14810181 114.21382141 C68.45403125 119.29363247 70.07979821 124.11794494 72 129 C72.27704269 127.93892532 72.55408539 126.87785065 72.83952332 125.78462219 C75.46436099 115.73549096 78.09711173 105.68846139 80.73742199 95.64338398 C82.09424919 90.48031326 83.44837656 85.31656717 84.79614258 80.15112305 C86.0993783 75.15676591 87.40995534 70.16438626 88.72542763 65.17323875 C89.22350817 63.27835494 89.71903699 61.38279831 90.21184349 59.48653603 C99.75346306 22.79722757 99.75346306 22.79722757 111.3125 14.5 C121.13967938 8.77575073 131.64285043 7.51505194 142.8359375 9.50390625 C152.79352073 12.18479404 159.58378787 17.22940327 165 26 C170.35757155 37.35230709 173.4614173 49.31640514 176.58203125 61.42578125 C177.08582011 63.35035024 177.59053195 65.27467784 178.09611511 67.19877625 C179.41097585 72.2114606 180.7147321 77.22696124 182.015625 82.24328613 C184.1117615 90.31668685 186.2266421 98.38520749 188.33856773 106.45448875 C189.0731582 109.26681147 189.80391985 112.08010583 190.53388977 114.89363098 C190.97934942 116.60398143 191.4248383 118.31432426 191.87036133 120.0246582 C192.17342949 121.19879524 192.17342949 121.19879524 192.48262024 122.39665222 C193.4740226 126.29384787 193.4740226 126.29384787 195 130 C195.27704269 128.91022354 195.55408539 127.82044708 195.83952332 126.69764709 C198.46885225 116.35664806 201.10154727 106.01651092 203.73742199 95.67717838 C205.09198404 90.36341148 206.44541615 85.04936244 207.79614258 79.73461914 C209.10313609 74.59213594 210.41325868 69.45045871 211.72542763 64.30929375 C212.22200128 62.36149104 212.71750393 60.41341492 213.21184349 58.46504402 C215.59035643 49.09324808 218.00942302 39.74084404 220.7199707 30.45874023 C220.92044856 29.76912988 221.12092642 29.07951952 221.32747936 28.36901188 C224.54671784 17.5379453 229.27238007 9.92128061 239.203125 4.32421875 C248.25041224 0.04065677 257.14212689 -0.35145066 267 0 C264.46894734 10.94954933 261.79490726 21.8478116 258.9296875 32.71484375 C258.53535551 34.21689681 258.14119117 35.71899388 257.74717712 37.22113037 C256.68175818 41.28021782 255.61341437 45.3385297 254.5442543 49.39663315 C253.87013249 51.95597981 253.19671931 54.51551192 252.52352905 57.07510376 C249.29786541 69.33900425 246.06457209 81.60088408 242.82822418 93.86196899 C241.9771542 97.0865597 241.12634239 100.31121845 240.27557373 103.53588867 C236.71038846 117.04786911 233.14019667 130.55851569 229.56427002 144.06765747 C228.39679074 148.47835648 227.23064949 152.88940594 226.06561279 157.30075073 C224.6865245 162.52195809 223.3042734 167.74231806 221.91958809 172.96204376 C221.40769662 174.89366489 220.89687632 176.82557023 220.38718987 178.75777435 C219.68790618 181.40790949 218.98471368 184.0569772 218.28051758 186.70581055 C218.07753492 187.47869887 217.87455227 188.2515872 217.66541862 189.04789639 C216.66073649 192.8099892 215.54729336 196.42419527 214 200 C200.5743161 200.48429321 187.72162678 199.57355701 177.16015625 190.40234375 C170.59437514 183.33535797 167.35689946 173.97453289 164.921875 164.82421875 C164.63777771 163.7842424 164.35368042 162.74426605 164.06097412 161.67277527 C158.23044446 140.00911377 153.02845219 118.16946632 147.66845703 96.38598633 C146.38905217 91.188009 145.10276449 85.99177421 143.81224823 80.79654503 C143.32636303 78.83445842 142.84315279 76.87170728 142.36273956 74.9082737 C141.69521222 72.18045433 141.0189874 69.45492689 140.34082031 66.72973633 C140.14753647 65.93031616 139.95425262 65.130896 139.75511169 64.30725098 C138.64107671 59.87435312 137.22507076 56.0342763 135 52 C133.35 52 131.7 52 130 52 C128.01404652 59.1727038 126.12989277 66.36241583 124.35205078 73.58935547 C123.84280149 75.64932693 123.33353347 77.70929376 122.82424927 79.76925659 C122.55902592 80.84400112 122.29380257 81.91874565 122.02054214 83.0260582 C120.5980079 88.78551058 119.16744613 94.54297135 117.73828125 100.30078125 C115.92792936 107.59605671 114.11994214 114.89189222 112.32080078 122.18994141 C110.85922587 128.11777425 109.38944421 134.04352013 107.91430283 139.96799088 C107.35720989 142.21169955 106.80306337 144.4561421 106.25204849 146.70135117 C96.6879137 185.65124293 96.6879137 185.65124293 82.1953125 195.1875 C72.98703265 200.38387369 62.2848666 200.26792161 52 200 C46.92045074 182.74626157 42.36799108 165.3598033 37.8270874 147.95883179 C35.52881844 139.15195542 33.22102596 130.34757071 30.9140625 121.54296875 C30.67537571 120.63172808 30.43668892 119.7204874 30.1907692 118.78163338 C24.69986707 97.82098701 19.1570198 76.87417116 13.60238647 55.930336 C12.8782087 53.19959941 12.15428093 50.46879665 11.43041992 47.73797607 C10.28922576 43.43295119 9.14752908 39.12805992 8.00535965 34.82329369 C7.58755508 33.24855283 7.16984462 31.67378699 6.75223923 30.0989933 C6.36249315 28.62949373 5.97252143 27.16005397 5.58230019 25.6906805 C5.21845237 24.32011061 4.85527682 22.94936204 4.49284935 21.57841587 C3.22750976 16.80566549 1.89266235 12.05524727 0.50271606 7.31733704 C-0.0398414 4.81634572 -0.08890931 2.55149903 0 0 Z " fill="#000000" transform="translate(0,156)"/>
<path d="M0 0 C0.85190918 0.00563965 1.70381836 0.0112793 2.58154297 0.01708984 C16.16264854 0.27565566 25.95011423 3.41642264 35.9375 12.6875 C46.60507754 23.85905758 54.92579959 37.31492297 63.5546875 50.05078125 C66.6343789 54.59476326 69.72395194 59.13014014 72.875 63.625 C73.26896973 64.19943848 73.66293945 64.77387695 74.06884766 65.36572266 C76.01804555 68.12255632 76.82828506 69.21359502 80.125 70.3125 C84.06696724 66.60943986 87.07136214 62.74261145 90.0625 58.25 C91.02783985 56.82497451 91.99402729 55.40052293 92.9609375 53.9765625 C93.47108398 53.2227832 93.98123047 52.46900391 94.50683594 51.69238281 C125.26241645 6.45922064 125.26241645 6.45922064 139.125 2.3125 C140.19041016 1.97992188 140.19041016 1.97992188 141.27734375 1.640625 C149.66945786 -0.48250814 161.8762876 -1.4370708 170.125 1.3125 C168.71667277 5.21091947 166.88300866 8.41456456 164.57421875 11.8515625 C164.21205765 12.39334137 163.84989655 12.93512024 163.47676086 13.49331665 C162.25983471 15.31110298 161.03620365 17.1242706 159.8125 18.9375 C158.93909332 20.23901643 158.06605711 21.54078153 157.19335938 22.84277344 C154.17771689 27.33750437 151.15138132 31.82499587 148.125 36.3125 C146.92784033 38.0888289 145.73073946 39.86519744 144.53369141 41.64160156 C139.51861088 49.08296374 134.50296643 56.5239382 129.47924805 63.95947266 C126.02372467 69.07438608 122.57241523 74.19211834 119.125 79.3125 C118.54991699 80.16626221 117.97483398 81.02002441 117.38232422 81.8996582 C115.71043158 84.38437474 114.04211511 86.87145117 112.375 89.359375 C111.87331299 90.10447327 111.37162598 90.84957153 110.85473633 91.61724854 C110.39220459 92.30913269 109.92967285 93.00101685 109.453125 93.71386719 C108.84839355 94.61549591 108.84839355 94.61549591 108.23144531 95.53533936 C107.06512435 97.40867164 106.08170168 99.32508894 105.125 101.3125 C105.42752686 101.75376221 105.73005371 102.19502441 106.04174805 102.6496582 C115.73818779 116.80621382 125.34297602 131.02426407 134.9375 145.25 C135.56183929 146.1754361 136.18617859 147.10087219 136.82943726 148.05435181 C142.78455918 156.8823954 148.73524727 165.71280374 154.62890625 174.58203125 C158.55512847 180.48993425 162.57589127 186.32449855 166.703125 192.09375 C170.125 196.98214286 170.125 196.98214286 170.125 200.3125 C147.97699207 200.90870759 147.97699207 200.90870759 137.125 197.3125 C136.06345703 196.98185547 136.06345703 196.98185547 134.98046875 196.64453125 C116.78778531 189.34522649 103.8801951 163.59687761 93.55859375 148.375 C92.41413759 146.68744907 91.26961337 144.9999443 90.125 143.3125 C89.44268311 142.30509766 89.44268311 142.30509766 88.74658203 141.27734375 C87.65555834 139.67664797 86.54755144 138.0875596 85.4375 136.5 C84.59638672 135.28376953 84.59638672 135.28376953 83.73828125 134.04296875 C81.90385896 132.07529544 80.75697279 131.66228288 78.125 131.3125 C73.20388311 137.22831073 68.7307565 143.28658242 64.51171875 149.71875 C35.84411839 193.17807938 35.84411839 193.17807938 19.125 198.3125 C18.4134375 198.53808594 17.701875 198.76367188 16.96875 198.99609375 C7.98024987 201.29069326 -1.67196063 200.48664776 -10.875 200.3125 C-10.26452282 196.11514469 -7.87273406 192.98585994 -5.546875 189.55859375 C-5.09415222 188.88167984 -4.64142944 188.20476593 -4.17498779 187.50733948 C-2.66387474 185.25111473 -1.14449417 183.00058712 0.375 180.75 C1.43991847 179.16372376 2.50436213 177.57712868 3.56835938 175.99023438 C6.46152972 171.67910985 9.36251189 167.37329979 12.26586914 163.06903076 C14.16979478 160.24608284 16.07237222 157.42223047 17.97460938 154.59814453 C23.68144525 146.12640574 29.39138095 137.65678264 35.10943604 129.19261169 C44.90885804 114.93890641 44.90885804 114.93890641 54.125 100.3125 C53.39837158 99.23508545 52.67174316 98.1576709 51.9230957 97.04760742 C51.43503448 96.32392975 50.94697327 95.60025208 50.44412231 94.85464478 C49.32528945 93.19568714 48.2064539 91.53673132 47.08761597 89.8777771 C43.89794842 85.14829609 40.70833119 80.41878116 37.51879883 75.68920898 C31.35267837 66.54593306 25.18628348 57.40284306 19.01808167 48.26097107 C16.40889518 44.39386772 13.79994459 40.52660525 11.19100952 36.65933228 C9.9507503 34.82101646 8.71037582 32.9827784 7.46987915 31.1446228 C0.99564254 21.55107414 -5.47268362 11.95424995 -11.875 2.3125 C-7.82943864 -0.3845409 -4.75248458 -0.03229217 0 0 Z " fill="#000000" transform="translate(341.875,155.6875)"/>
<path d="M0 0 C0.07023753 18.43761268 0.12306017 36.87519039 0.15543652 55.31290817 C0.17087235 63.87482947 0.19189868 72.43666739 0.22631836 80.99853516 C0.25632169 88.46543253 0.27559884 95.93226949 0.28226548 103.39922547 C0.28615932 107.34896724 0.29524096 111.29853623 0.31719017 115.24822235 C0.33772861 118.97464564 0.34379922 122.70082689 0.33932304 126.42730141 C0.34052694 128.4288964 0.35657742 130.43046575 0.3732605 132.43199158 C0.34424728 141.01299513 0.16681849 151.17763339 -5.0625 158.4375 C-14.25827919 166.45934994 -24.17974604 167.6250212 -36 167 C-37.6992761 165.3007239 -37.12975301 163.13402261 -37.13371277 160.80845642 C-37.13797775 159.68273224 -37.14224274 158.55700806 -37.14663696 157.39717102 C-37.14618378 156.15098495 -37.14573059 154.90479889 -37.14526367 153.62084961 C-37.14862228 152.3168219 -37.1519809 151.01279419 -37.15544128 149.66925049 C-37.16430523 146.08003939 -37.16662054 142.4908521 -37.16725707 138.90163112 C-37.1682052 135.90502658 -37.17188283 132.90842763 -37.17542917 129.91182524 C-37.18358464 122.83647764 -37.1860126 115.76114277 -37.18530273 108.68579102 C-37.18470328 101.39514043 -37.19522599 94.10456416 -37.2110464 86.81393236 C-37.22414649 80.55311356 -37.22948552 74.29231896 -37.22884732 68.03148657 C-37.22859284 64.29320613 -37.23141598 60.55499154 -37.24202538 56.81672478 C-37.25355533 52.63940287 -37.24894443 48.4622456 -37.24291992 44.28491211 C-37.24853943 43.05289566 -37.25415894 41.82087921 -37.25994873 40.55152893 C-37.23350853 33.33103726 -37.07837367 26.81035172 -33.546875 20.3359375 C-28.90241504 16.0761414 -23.00752816 13.89316803 -17.328125 11.28125 C-11.62159881 8.56754869 -7.04084286 5.70015692 -2.45214844 1.33349609 C-1 0 -1 0 0 0 Z " fill="#000000" transform="translate(315,189)"/>
<path d="M0 0 C0.53739886 9.38955234 0.41585305 18.17804637 -5.484375 25.95703125 C-10.69990811 31.06871525 -17.47036649 33.93631782 -24 37.0078125 C-28.20520111 39.02071879 -32.09843509 41.45645984 -36 44 C-36.76151833 16.78277074 -36.76151833 16.78277074 -29 8 C-20.23063369 0.54244463 -11.16763715 -0.42769674 0 0 Z " fill="#000000" transform="translate(315,156)"/>
</svg>
