<?xml version="1.0" encoding="UTF-8"?>
<svg xmlns="http://www.w3.org/2000/svg" xmlns:xlink="http://www.w3.org/1999/xlink" width="600px" height="600px" viewBox="0 0 256 256" version="1.1">
<defs>
<filter id="alpha" filterUnits="objectBoundingBox" x="0%" y="0%" width="100%" height="100%">
  <feColorMatrix type="matrix" in="SourceGraphic" values="0 0 0 0 1 0 0 0 0 1 0 0 0 0 1 0 0 0 1 0"/>
</filter>
<mask id="mask0">
  <g filter="url(#alpha)">
<rect x="0" y="0" width="256" height="256" style="fill:rgb(0%,0%,0%);fill-opacity:0.972549;stroke:none;"/>
  </g>
</mask>
<clipPath id="clip1">
  <rect x="0" y="0" width="256" height="256"/>
</clipPath>
<g id="surface5" clip-path="url(#clip1)">
<path style=" stroke:none;fill-rule:evenodd;fill:rgb(12.941176%,45.490196%,60.784314%);fill-opacity:1;" d="M 119.875 -0.125 C 125.207031 -0.125 130.542969 -0.125 135.875 -0.125 C 175.960938 3.351562 208.003906 21.101562 232 53.125 C 246.128906 73.140625 254.085938 95.390625 255.875 119.875 C 255.875 125.207031 255.875 130.542969 255.875 135.875 C 252.691406 174.035156 236.277344 205.078125 206.625 229 C 185.683594 245.023438 162.015625 253.984375 135.625 255.875 C 130.457031 255.875 125.292969 255.875 120.125 255.875 C 79.933594 252.472656 47.808594 234.722656 23.75 202.625 C 9.621094 182.609375 1.660156 160.359375 -0.125 135.875 C -0.125 130.542969 -0.125 125.207031 -0.125 119.875 C 3.351562 79.789062 21.101562 47.746094 53.125 23.75 C 73.136719 9.621094 95.386719 1.660156 119.875 -0.125 Z M 122.125 5.875 C 161.101562 5.058594 193.644531 18.976562 219.75 47.625 C 243.753906 76.128906 253.335938 108.960938 248.5 146.125 C 242.703125 179.949219 226.078125 206.992188 198.625 227.25 C 167.367188 248.640625 133.28125 254.808594 96.375 245.75 C 64.179688 236.460938 39.46875 217.5 22.25 188.875 C 5.914062 159.691406 1.832031 128.855469 10 96.375 C 19.042969 64.894531 37.417969 40.519531 65.125 23.25 C 82.726562 12.839844 101.726562 7.046875 122.125 5.875 Z M 122.125 5.875 "/>
</g>
<mask id="mask1">
  <g filter="url(#alpha)">
<rect x="0" y="0" width="256" height="256" style="fill:rgb(0%,0%,0%);fill-opacity:0.996078;stroke:none;"/>
  </g>
</mask>
<clipPath id="clip2">
  <rect x="0" y="0" width="256" height="256"/>
</clipPath>
<g id="surface8" clip-path="url(#clip2)">
<path style=" stroke:none;fill-rule:evenodd;fill:rgb(12.941176%,45.490196%,60.784314%);fill-opacity:1;" d="M 124.875 17.875 C 154.527344 17.503906 180.277344 27.171875 202.125 46.875 C 191.234375 47.214844 184.695312 52.796875 182.5 63.625 C 182.015625 68.605469 182.847656 73.355469 185 77.875 C 187.914062 83.539062 191.082031 89.039062 194.5 94.375 C 202.671875 108.84375 204.253906 124.011719 199.25 139.875 C 193.710938 158.113281 188.210938 176.363281 182.75 194.625 C 169.386719 155.328125 156.09375 115.996094 142.875 76.625 C 143.007812 76.453125 143.171875 76.328125 143.375 76.25 C 147.300781 76.011719 151.214844 75.679688 155.125 75.25 C 158.652344 74.65625 160.027344 72.617188 159.25 69.125 C 158.414062 67.332031 157 66.414062 155 66.375 C 145.265625 67.15625 135.515625 67.65625 125.75 67.875 C 116.070312 67.648438 106.402344 67.148438 96.75 66.375 C 93.171875 66.789062 91.671875 68.789062 92.25 72.375 C 92.980469 74.222656 94.355469 75.179688 96.375 75.25 C 100.035156 75.671875 103.699219 76.007812 107.375 76.25 C 113.371094 91.816406 119.121094 107.484375 124.625 123.25 C 116.800781 147.351562 108.800781 171.390625 100.625 195.375 C 87.136719 155.78125 73.71875 116.15625 60.375 76.5 C 64.53125 76.046875 68.699219 75.628906 72.875 75.25 C 75.582031 74.960938 76.996094 73.460938 77.125 70.75 C 76.796875 68.003906 75.253906 66.546875 72.5 66.375 C 62.808594 67.171875 53.097656 67.671875 43.375 67.875 C 40.941406 67.90625 38.527344 67.742188 36.125 67.375 C 54.136719 40.777344 79.054688 24.734375 110.875 19.25 C 115.558594 18.585938 120.226562 18.128906 124.875 17.875 Z M 124.875 17.875 "/>
</g>
<mask id="mask2">
  <g filter="url(#alpha)">
<rect x="0" y="0" width="256" height="256" style="fill:rgb(0%,0%,0%);fill-opacity:0.988235;stroke:none;"/>
  </g>
</mask>
<clipPath id="clip3">
  <rect x="0" y="0" width="256" height="256"/>
</clipPath>
<g id="surface11" clip-path="url(#clip3)">
<path style=" stroke:none;fill-rule:evenodd;fill:rgb(12.941176%,45.490196%,60.784314%);fill-opacity:1;" d="M 224.125 75.125 C 225.75 77.542969 227.125 80.125 228.25 82.875 C 240.296875 111.015625 240.960938 139.433594 230.25 168.125 C 220.714844 191.691406 205.007812 209.941406 183.125 222.875 C 194.449219 189.191406 206.074219 155.523438 218 121.875 C 222.347656 110.480469 224.636719 98.6875 224.875 86.5 C 224.796875 82.695312 224.546875 78.902344 224.125 75.125 Z M 224.125 75.125 "/>
</g>
<mask id="mask3">
  <g filter="url(#alpha)">
<rect x="0" y="0" width="256" height="256" style="fill:rgb(0%,0%,0%);fill-opacity:0.992157;stroke:none;"/>
  </g>
</mask>
<clipPath id="clip4">
  <rect x="0" y="0" width="256" height="256"/>
</clipPath>
<g id="surface14" clip-path="url(#clip4)">
<path style=" stroke:none;fill-rule:evenodd;fill:rgb(12.941176%,45.490196%,60.784314%);fill-opacity:1;" d="M 27.375 83.125 C 27.625 83.117188 27.789062 83.242188 27.875 83.5 C 45.265625 131.21875 62.683594 178.925781 80.125 226.625 C 80.042969 226.707031 79.957031 226.792969 79.875 226.875 C 50.089844 211.734375 30.632812 188.070312 21.5 155.875 C 15.285156 130.953125 17.242188 106.703125 27.375 83.125 Z M 27.375 83.125 "/>
</g>
<mask id="mask4">
  <g filter="url(#alpha)">
<rect x="0" y="0" width="256" height="256" style="fill:rgb(0%,0%,0%);fill-opacity:0.992157;stroke:none;"/>
  </g>
</mask>
<clipPath id="clip5">
  <rect x="0" y="0" width="256" height="256"/>
</clipPath>
<g id="surface17" clip-path="url(#clip5)">
<path style=" stroke:none;fill-rule:evenodd;fill:rgb(12.941176%,45.490196%,60.784314%);fill-opacity:1;" d="M 129.625 137.375 C 129.949219 137.515625 130.15625 137.765625 130.25 138.125 C 141.480469 169.234375 152.855469 200.273438 164.375 231.25 C 162.8125 232.105469 161.144531 232.773438 159.375 233.25 C 138.453125 239.417969 117.539062 239.417969 96.625 233.25 C 107.699219 201.316406 118.699219 169.359375 129.625 137.375 Z M 129.625 137.375 "/>
</g>
</defs>
<g id="surface1">
<use xlink:href="#surface5" mask="url(#mask0)"/>
<use xlink:href="#surface8" mask="url(#mask1)"/>
<use xlink:href="#surface11" mask="url(#mask2)"/>
<use xlink:href="#surface14" mask="url(#mask3)"/>
<use xlink:href="#surface17" mask="url(#mask4)"/>
</g>
</svg>
